<svg width="54" height="53" viewBox="0 0 54 53" fill="none" xmlns="http://www.w3.org/2000/svg">
<mask id="path-1-inside-1_16_1455" fill="white">
<path d="M33.6971 25.5498C33.3097 25.5498 32.95 25.4348 32.6305 25.25V25.2549C32.6305 25.9126 32.3936 26.5302 31.9637 26.9928C31.5339 27.4567 30.9619 27.7123 30.3531 27.7123C29.96 27.7123 29.5958 27.5945 29.2728 27.4047C29.2402 28.0064 29.0173 28.5688 28.6197 28.9983C28.1899 29.4621 27.6179 29.7178 27.0087 29.7178C25.7984 29.7178 24.8155 28.6911 24.7446 27.4043C24.3701 27.6227 23.9467 27.7373 23.51 27.707C22.3194 27.6227 21.387 26.5127 21.387 25.1792V14.126L20.2206 16.3065C19.7764 17.1405 18.9448 17.6583 18.0494 17.6583C17.6131 17.6583 17.1821 17.5348 16.8005 17.2988C16.3251 17.0014 15.9851 16.5241 15.8437 15.953C15.7016 15.3816 15.7751 14.784 16.0499 14.2719C16.0503 14.2719 19.8662 7.14136 20.099 6.70336C20.1266 6.63751 20.2055 6.4465 20.2726 6.28371C20.3366 6.12828 20.3916 5.96876 20.4443 5.80842C21.5951 2.30273 24.4444 0.125075 27.8809 0.125075C32.3434 0.125075 35.9739 4.37316 35.9739 9.59483L35.9743 23.0919C35.9743 23.7488 35.7378 24.3661 35.3083 24.8303C34.8785 25.2942 34.3065 25.5498 33.697 25.5498L33.6971 25.5498ZM27.8809 1.43088C24.9281 1.43088 22.5746 3.23063 21.5849 6.24513C21.5216 6.43655 21.4556 6.62797 21.3787 6.81449C21.1554 7.35481 21.1554 7.35481 21.0925 7.43251L21.0842 7.42474C20.7726 8.05914 19.847 9.78888 17.0977 14.9254C16.9848 15.1361 16.9548 15.3807 17.0124 15.6146C17.0708 15.8486 17.2107 16.0457 17.4044 16.1664C18.0055 16.539 18.8289 16.2985 19.1715 15.6543L21.4682 11.3636C21.6054 11.108 21.8828 10.9824 22.1489 11.0601C22.4135 11.1366 22.5974 11.3955 22.5974 11.6908V25.1796C22.5974 25.816 23.0424 26.3653 23.5894 26.4041C23.9047 26.4221 24.1989 26.308 24.4199 26.07C24.6208 25.8532 24.7314 25.5644 24.7314 25.2556V16.4338C24.7314 16.073 25.0025 15.7806 25.3368 15.7806C25.6711 15.7806 25.9421 16.0726 25.9421 16.4338L25.9417 27.2608C25.9417 27.8956 26.4205 28.4122 27.0088 28.4122C27.2946 28.4122 27.5629 28.2928 27.7642 28.076C27.9651 27.8588 28.0758 27.5692 28.0758 27.2608V16.4338C28.0758 16.073 28.3464 15.7806 28.6811 15.7806C29.0154 15.7806 29.2865 16.0726 29.2865 16.4338L29.2861 25.1541V25.2556C29.2861 25.89 29.7648 26.4065 30.3535 26.4065C30.6389 26.4065 30.9065 26.2867 31.1089 26.0691C31.3098 25.8527 31.4205 25.564 31.4205 25.2551V16.4333C31.4205 16.0726 31.6912 15.7801 32.0259 15.7801C32.3602 15.7801 32.6312 16.0722 32.6312 16.4333L32.6304 23.0923C32.6304 23.7275 33.1092 24.2441 33.6971 24.2441C33.9832 24.2441 34.2509 24.1242 34.4517 23.9079C34.6534 23.6903 34.7637 23.4007 34.7637 23.0923L34.7641 9.59514C34.7641 5.09387 31.6764 1.43101 27.8809 1.43101L27.8809 1.43088Z"/>
</mask>
<path d="M33.6971 25.5498C33.3097 25.5498 32.95 25.4348 32.6305 25.25V25.2549C32.6305 25.9126 32.3936 26.5302 31.9637 26.9928C31.5339 27.4567 30.9619 27.7123 30.3531 27.7123C29.96 27.7123 29.5958 27.5945 29.2728 27.4047C29.2402 28.0064 29.0173 28.5688 28.6197 28.9983C28.1899 29.4621 27.6179 29.7178 27.0087 29.7178C25.7984 29.7178 24.8155 28.6911 24.7446 27.4043C24.3701 27.6227 23.9467 27.7373 23.51 27.707C22.3194 27.6227 21.387 26.5127 21.387 25.1792V14.126L20.2206 16.3065C19.7764 17.1405 18.9448 17.6583 18.0494 17.6583C17.6131 17.6583 17.1821 17.5348 16.8005 17.2988C16.3251 17.0014 15.9851 16.5241 15.8437 15.953C15.7016 15.3816 15.7751 14.784 16.0499 14.2719C16.0503 14.2719 19.8662 7.14136 20.099 6.70336C20.1266 6.63751 20.2055 6.4465 20.2726 6.28371C20.3366 6.12828 20.3916 5.96876 20.4443 5.80842C21.5951 2.30273 24.4444 0.125075 27.8809 0.125075C32.3434 0.125075 35.9739 4.37316 35.9739 9.59483L35.9743 23.0919C35.9743 23.7488 35.7378 24.3661 35.3083 24.8303C34.8785 25.2942 34.3065 25.5498 33.697 25.5498L33.6971 25.5498ZM27.8809 1.43088C24.9281 1.43088 22.5746 3.23063 21.5849 6.24513C21.5216 6.43655 21.4556 6.62797 21.3787 6.81449C21.1554 7.35481 21.1554 7.35481 21.0925 7.43251L21.0842 7.42474C20.7726 8.05914 19.847 9.78888 17.0977 14.9254C16.9848 15.1361 16.9548 15.3807 17.0124 15.6146C17.0708 15.8486 17.2107 16.0457 17.4044 16.1664C18.0055 16.539 18.8289 16.2985 19.1715 15.6543L21.4682 11.3636C21.6054 11.108 21.8828 10.9824 22.1489 11.0601C22.4135 11.1366 22.5974 11.3955 22.5974 11.6908V25.1796C22.5974 25.816 23.0424 26.3653 23.5894 26.4041C23.9047 26.4221 24.1989 26.308 24.4199 26.07C24.6208 25.8532 24.7314 25.5644 24.7314 25.2556V16.4338C24.7314 16.073 25.0025 15.7806 25.3368 15.7806C25.6711 15.7806 25.9421 16.0726 25.9421 16.4338L25.9417 27.2608C25.9417 27.8956 26.4205 28.4122 27.0088 28.4122C27.2946 28.4122 27.5629 28.2928 27.7642 28.076C27.9651 27.8588 28.0758 27.5692 28.0758 27.2608V16.4338C28.0758 16.073 28.3464 15.7806 28.6811 15.7806C29.0154 15.7806 29.2865 16.0726 29.2865 16.4338L29.2861 25.1541V25.2556C29.2861 25.89 29.7648 26.4065 30.3535 26.4065C30.6389 26.4065 30.9065 26.2867 31.1089 26.0691C31.3098 25.8527 31.4205 25.564 31.4205 25.2551V16.4333C31.4205 16.0726 31.6912 15.7801 32.0259 15.7801C32.3602 15.7801 32.6312 16.0722 32.6312 16.4333L32.6304 23.0923C32.6304 23.7275 33.1092 24.2441 33.6971 24.2441C33.9832 24.2441 34.2509 24.1242 34.4517 23.9079C34.6534 23.6903 34.7637 23.4007 34.7637 23.0923L34.7641 9.59514C34.7641 5.09387 31.6764 1.43101 27.8809 1.43101L27.8809 1.43088Z" fill="#4CAF4F"/>
<path d="M33.6971 25.5498V2.21976H111.004L46.603 44.985L33.6971 25.5498ZM32.6305 25.25H9.30047V-15.2026L44.3144 5.05653L32.6305 25.25ZM31.9637 26.9928L14.8518 11.135L14.8623 11.1237L14.8728 11.1124L31.9637 26.9928ZM29.2728 27.4047L5.97697 26.1426L8.05036 -12.1263L41.0926 7.29053L29.2728 27.4047ZM28.6197 28.9983L45.7399 44.8472L45.7316 44.8562L28.6197 28.9983ZM24.7446 27.4043L12.9912 7.25129L45.9427 -11.9664L48.0394 26.122L24.7446 27.4043ZM23.51 27.707L21.8967 50.9811L21.8799 50.98L21.8631 50.9788L23.51 27.707ZM21.387 14.126L0.815241 3.1218L44.717 14.126H21.387ZM20.2206 16.3065L-0.370362 5.3383L-0.360765 5.32028L-0.351137 5.30228L20.2206 16.3065ZM16.8005 17.2988L4.53115 37.142L4.47912 37.1098L4.42726 37.0774L16.8005 17.2988ZM15.8437 15.953L38.4838 10.3212L38.4868 10.3335L38.4899 10.3458L15.8437 15.953ZM16.0499 14.2719L-4.50744 3.24089L2.09215 -9.0581H16.0499V14.2719ZM20.099 6.70336L41.6073 15.741L41.1971 16.7173L40.7001 17.6525L20.099 6.70336ZM20.2726 6.28371L-1.29741 -2.60585L-1.29729 -2.60612L20.2726 6.28371ZM20.4443 5.80842L42.6106 13.0846L42.6086 13.0906L20.4443 5.80842ZM35.9739 9.59483L12.6439 9.59549V9.59483H35.9739ZM35.9743 23.0919L59.3043 23.0913V23.0919H35.9743ZM35.3083 24.8303L52.4348 40.6724L52.4275 40.6803L52.4202 40.6882L35.3083 24.8303ZM33.697 25.5498V48.8798H-43.6097L20.7911 6.11462L33.697 25.5498ZM27.8809 1.43088V-21.8991H58.1921L50.4338 7.40234L27.8809 1.43088ZM21.5849 6.24513L43.7509 13.5223L43.7431 13.5462L43.7352 13.57L21.5849 6.24513ZM21.3787 6.81449L42.9454 15.712L42.9405 15.7238L21.3787 6.81449ZM21.0925 7.43251L39.224 22.1137L23.4846 41.5522L5.18683 24.5L21.0925 7.43251ZM21.0842 7.42474L0.143473 -2.86L13.9981 -31.0694L36.9899 -9.64272L21.0842 7.42474ZM17.0977 14.9254L37.6668 25.9346L37.6624 25.9428L37.658 25.9511L17.0977 14.9254ZM17.0124 15.6146L-5.62367 21.2623L-5.63221 21.228L-5.64065 21.1938L17.0124 15.6146ZM17.4044 16.1664L5.11337 35.9962L5.0912 35.9824L5.06906 35.9686L17.4044 16.1664ZM19.1715 15.6543L-1.42627 4.69891L-1.4118 4.67171L-1.39726 4.64455L19.1715 15.6543ZM21.4682 11.3636L0.899405 0.35385L0.905839 0.341829L0.912287 0.329816L21.4682 11.3636ZM22.1489 11.0601L15.6698 33.4724L15.6391 33.4635L15.6084 33.4545L22.1489 11.0601ZM23.5894 26.4041L22.2601 49.6962L22.0983 49.687L21.9367 49.6755L23.5894 26.4041ZM24.4199 26.07L41.5317 41.9279L41.5248 41.9353L41.5179 41.9427L24.4199 26.07ZM25.9421 16.4338L49.2721 16.4338L49.2721 16.4346L25.9421 16.4338ZM25.9417 27.2608L2.61174 27.2608L2.61174 27.26L25.9417 27.2608ZM27.7642 28.076L44.891 43.9178L44.8759 43.9341L44.8608 43.9503L27.7642 28.076ZM29.2865 16.4338L52.6165 16.4338L52.6165 16.4348L29.2865 16.4338ZM29.2861 25.1541L5.95608 25.1541L5.95608 25.1531L29.2861 25.1541ZM31.1089 26.0691L48.2059 41.9431L48.1985 41.951L48.1912 41.9589L31.1089 26.0691ZM32.6312 16.4333L55.9612 16.4333L55.9612 16.436L32.6312 16.4333ZM32.6304 23.0923L9.30044 23.0923L9.30044 23.0896L32.6304 23.0923ZM34.4517 23.9079L51.5636 39.7657L51.5562 39.7738L51.5487 39.7818L34.4517 23.9079ZM34.7637 23.0923L11.4337 23.0923L11.4337 23.0916L34.7637 23.0923ZM34.7641 9.59514L58.0941 9.59514L58.0941 9.5958L34.7641 9.59514ZM27.8809 1.43101V24.761H-2.43029L5.32805 -4.54045L27.8809 1.43101ZM33.6971 48.8798C28.5658 48.8798 24.2176 47.336 20.9465 45.4434L44.3144 5.05653C41.6824 3.53362 38.0536 2.21976 33.6971 2.21976V48.8798ZM55.9605 25.25V25.2549H9.30047V25.25H55.9605ZM55.9605 25.2549C55.9605 31.5321 53.676 37.8997 49.0547 42.8733L14.8728 11.1124C11.1112 15.1607 9.30047 20.293 9.30047 25.2549H55.9605ZM49.0756 42.8507C44.4277 47.8662 37.7417 51.0423 30.3531 51.0423V4.38231C24.1822 4.38231 18.6401 7.04718 14.8518 11.135L49.0756 42.8507ZM30.3531 51.0423C25.161 51.0423 20.7608 49.4627 17.453 47.5189L41.0926 7.29053C38.4307 5.72628 34.7591 4.38231 30.3531 4.38231V51.0423ZM52.5686 28.6669C52.2682 34.2117 50.1548 40.0782 45.7399 44.8472L11.4995 13.1494C7.8799 17.0593 6.21219 21.8011 5.97697 26.1426L52.5686 28.6669ZM45.7316 44.8562C41.0821 49.8733 34.3954 53.0478 27.0087 53.0478V6.38777C20.8404 6.38777 15.2976 9.05095 11.5078 13.1404L45.7316 44.8562ZM27.0087 53.0478C11.6681 53.0478 2.10142 40.5219 1.44991 28.6866L48.0394 26.122C47.5295 16.8603 39.9286 6.38777 27.0087 6.38777V53.0478ZM36.4981 47.5573C32.5767 49.8444 27.5418 51.3725 21.8967 50.9811L25.1234 4.43284C20.3517 4.10207 16.1636 5.40109 12.9912 7.25129L36.4981 47.5573ZM21.8631 50.9788C6.3359 49.88 -1.94302 36.5108 -1.94302 25.1792H44.717C44.717 16.5145 38.3029 5.3655 25.1569 4.43519L21.8631 50.9788ZM-1.94302 25.1792V14.126H44.717V25.1792H-1.94302ZM41.9587 25.1302L40.7923 27.3107L-0.351137 5.30228L0.815241 3.1218L41.9587 25.1302ZM40.8116 27.2747C36.5949 35.1908 28.1454 40.9883 18.0494 40.9883V-5.67171C9.7441 -5.67171 2.95783 -0.909832 -0.370362 5.3383L40.8116 27.2747ZM18.0494 40.9883C13.1791 40.9883 8.5135 39.6043 4.53115 37.142L29.0698 -2.54446C25.8508 -4.53478 22.0472 -5.67171 18.0494 -5.67171V40.9883ZM4.42726 37.0774C-1.4345 33.4103 -5.27888 27.7134 -6.80242 21.5602L38.4899 10.3458C37.2491 5.33473 34.0848 0.592471 29.1736 -2.47985L4.42726 37.0774ZM-6.79631 21.5848C-8.3188 15.4644 -7.55513 8.92056 -4.50744 3.24089L36.6073 25.3029C39.1054 20.6475 39.722 15.2988 38.4838 10.3212L-6.79631 21.5848ZM16.0499 -9.0581C4.27041 -5.86591 -4.34465 2.94274 -4.40314 3.04868C-4.42269 3.08439 -4.45191 3.13803 -4.46158 3.15586C-4.47664 3.18363 -4.48832 3.20533 -4.49026 3.20894C-4.49737 3.22213 -4.5026 3.23189 -4.50277 3.2322C-4.50471 3.23582 -4.50494 3.23624 -4.50186 3.23051C-4.49652 3.22055 -4.48728 3.20329 -4.47355 3.17765C-4.44649 3.12713 -4.40612 3.05173 -4.35387 2.95412C-4.24957 2.75928 -4.09999 2.47981 -3.91942 2.14242C-3.55837 1.46779 -3.07443 0.563456 -2.58321 -0.354613C-2.0919 -1.27284 -1.59379 -2.2039 -1.20421 -2.93229C-1.00933 -3.29667 -0.842308 -3.60901 -0.717141 -3.84319C-0.654472 -3.96043 -0.603176 -4.05644 -0.564521 -4.12883C-0.545167 -4.16507 -0.52979 -4.19388 -0.518187 -4.21564C-0.50537 -4.23967 -0.501115 -4.24767 -0.502119 -4.24578L40.7001 17.6525C40.5635 17.9095 39.5253 19.8502 38.5578 21.6584C38.0659 22.5777 37.5813 23.4834 37.2195 24.1594C37.0386 24.4973 36.8882 24.7784 36.7828 24.9752C36.7302 25.0734 36.6884 25.1516 36.6594 25.2058C36.6451 25.2325 36.6328 25.2553 36.6237 25.2724C36.6195 25.2801 36.6138 25.2908 36.6082 25.3013C36.6062 25.305 36.5996 25.3173 36.5915 25.3323C36.5891 25.3367 36.5771 25.3591 36.5618 25.3873C36.552 25.4053 36.5227 25.4591 36.5031 25.495C36.4445 25.601 27.8295 34.4097 16.0499 37.6019V-9.0581ZM-1.40939 -2.33428C-1.41428 -2.32266 -1.41789 -2.31403 -1.4198 -2.30946C-1.42181 -2.30463 -1.42307 -2.30162 -1.42338 -2.30087C-1.42388 -2.29968 -1.4227 -2.3025 -1.41942 -2.31041C-1.41276 -2.32646 -1.40269 -2.35077 -1.38918 -2.38346C-1.36231 -2.44844 -1.32949 -2.52801 -1.29741 -2.60585L41.8426 15.1733C41.7922 15.2956 41.6743 15.5816 41.6073 15.741L-1.40939 -2.33428ZM-1.29729 -2.60612C-1.4389 -2.26253 -1.54277 -1.98186 -1.60861 -1.79749C-1.67299 -1.61718 -1.71448 -1.49076 -1.72006 -1.47377L42.6086 13.0906C42.5033 13.4114 42.2371 14.216 41.8425 15.1735L-1.29729 -2.60612ZM-1.72203 -1.46777C2.25906 -13.5959 13.3921 -23.2049 27.8809 -23.2049V23.4551C31.2421 23.4551 34.6572 22.3397 37.4719 20.1886C40.2365 18.0758 41.8429 15.4233 42.6106 13.0846L-1.72203 -1.46777ZM27.8809 -23.2049C48.5315 -23.2049 59.3039 -4.93929 59.3039 9.59483H12.6439C12.6439 12.3348 13.5881 15.3945 15.8653 18.059C18.1801 20.7676 22.3459 23.4551 27.8809 23.4551V-23.2049ZM59.3039 9.59418L59.3043 23.0913L12.6443 23.0926L12.6439 9.59549L59.3039 9.59418ZM59.3043 23.0919C59.3043 29.3744 57.0176 35.7181 52.4348 40.6724L18.1818 8.98826C14.4579 13.0141 12.6443 18.1233 12.6443 23.0919H59.3043ZM52.4202 40.6882C47.7696 45.7066 41.0824 48.8798 33.697 48.8798V2.21982C27.5307 2.21982 21.9874 4.88173 18.1964 8.97246L52.4202 40.6882ZM20.7911 6.11462L20.7912 6.11457L46.603 44.985L46.6029 44.985L20.7911 6.11462ZM27.8809 24.7609C31.3134 24.7609 35.0138 23.6522 38.1681 21.2403C41.2543 18.8804 42.955 15.9467 43.7509 13.5223L-0.581086 -1.03209C3.23563 -12.6576 13.8655 -21.8991 27.8809 -21.8991V24.7609ZM43.7352 13.57C43.6303 13.8873 43.3526 14.7249 42.9454 15.712L-0.188025 -2.08301C-0.324188 -1.75296 -0.421853 -1.4886 -0.479829 -1.32654C-0.536078 -1.1693 -0.570033 -1.06569 -0.565381 -1.07976L43.7352 13.57ZM42.9405 15.7238C42.8949 15.8342 42.8249 16.0038 42.7628 16.1519C42.7212 16.2511 42.5572 16.6439 42.3459 17.1002C42.124 17.5794 41.6142 18.6497 40.8102 19.912C40.3962 20.5621 40.0064 21.104 39.6842 21.5276C39.5364 21.722 39.4139 21.8769 39.3406 21.9687C39.3034 22.0153 39.2731 22.053 39.255 22.0754C39.2456 22.087 39.2379 22.0965 39.2331 22.1025C39.2285 22.1082 39.2244 22.1132 39.224 22.1137L2.96102 -7.24869C3.05539 -7.36524 2.25466 -6.40995 1.45453 -5.15366C0.675247 -3.9301 0.191209 -2.90819 0.00506826 -2.50621C-0.0968407 -2.28614 -0.170991 -2.11612 -0.204716 -2.03818C-0.240692 -1.95504 -0.263891 -1.89965 -0.26551 -1.8958C-0.268388 -1.88893 -0.264571 -1.89799 -0.248104 -1.93773C-0.231955 -1.97671 -0.212344 -2.02416 -0.183134 -2.09485L42.9405 15.7238ZM5.18683 24.5L5.17849 24.4922L36.9899 -9.64272L36.9982 -9.63494L5.18683 24.5ZM42.0249 17.7095C41.4762 18.8266 40.2275 21.1502 37.6668 25.9346L-3.47134 3.91623C-2.08981 1.33504 -1.18773 -0.350471 -0.590221 -1.47327C0.0807331 -2.73408 0.19046 -2.95567 0.143473 -2.86L42.0249 17.7095ZM37.658 25.9511C40.3129 21.0002 40.9672 15.3206 39.6655 10.0355L-5.64065 21.1938C-7.05753 15.4408 -6.34342 9.27198 -3.46254 3.8998L37.658 25.9511ZM39.6485 9.96699C38.3365 4.70826 35.0129 -0.351043 29.7397 -3.63584L5.06906 35.9686C-0.591519 32.4425 -4.19488 26.9889 -5.62367 21.2623L39.6485 9.96699ZM29.6954 -3.66338C18.094 -10.8542 4.15227 -5.78957 -1.42627 4.69891L39.7693 26.6097C33.5055 38.3866 17.9171 43.9323 5.11337 35.9962L29.6954 -3.66338ZM-1.39726 4.64455L0.899405 0.35385L42.0369 22.3734L39.7403 26.6641L-1.39726 4.64455ZM0.912287 0.329816C5.80221 -8.78007 16.9332 -14.7679 28.6895 -11.3343L15.6084 33.4545C26.8325 36.7327 37.4086 30.996 42.0241 22.3974L0.912287 0.329816ZM28.6281 -11.3521C39.8581 -8.10565 45.9274 2.06837 45.9274 11.6908H-0.732645C-0.732645 20.7227 4.9689 30.3789 15.6698 33.4724L28.6281 -11.3521ZM45.9274 11.6908V25.1796H-0.732645V11.6908H45.9274ZM45.9274 25.1796C45.9274 20.1291 44.1883 15.2461 41.0163 11.3305C37.8618 7.43657 32.4873 3.6473 25.2421 3.13276L21.9367 49.6755C6.35837 48.5692 -0.732645 35.0161 -0.732645 25.1796H45.9274ZM24.9186 3.11204C18.4123 2.74074 11.9117 5.253 7.32178 10.1972L41.5179 41.9427C36.4861 47.3631 29.3972 50.1035 22.2601 49.6962L24.9186 3.11204ZM7.30798 10.2121C3.32916 14.5055 1.40143 19.9577 1.40143 25.2556H48.0614C48.0614 31.1711 45.9123 37.2008 41.5317 41.9279L7.30798 10.2121ZM1.40143 25.2556V16.4338H48.0614V25.2556H1.40143ZM1.40143 16.4338C1.40143 4.89202 10.4774 -7.54941 25.3368 -7.54941V39.1106C39.5275 39.1106 48.0614 27.2541 48.0614 16.4338H1.40143ZM25.3368 -7.54941C40.1871 -7.54941 49.2721 4.88194 49.2721 16.4338H2.61212C2.61212 27.2633 11.155 39.1106 25.3368 39.1106V-7.54941ZM49.2721 16.4346L49.2717 27.2616L2.61174 27.26L2.61212 16.433L49.2721 16.4346ZM49.2717 27.2608C49.2717 16.7144 40.9454 5.0822 27.0088 5.0822V51.7422C11.8956 51.7422 2.61174 39.0768 2.61174 27.2608H49.2717ZM27.0088 5.0822C20.5546 5.0822 14.706 7.85234 10.6676 12.2016L44.8608 43.9503C40.4199 48.7332 34.0346 51.7422 27.0088 51.7422V5.0822ZM10.6375 12.2342C6.66746 16.5262 4.74578 21.9709 4.74578 27.2608H51.4058C51.4058 33.1675 49.2627 39.1914 44.891 43.9178L10.6375 12.2342ZM4.74578 27.2608V16.4338H51.4058V27.2608H4.74578ZM4.74578 16.4338C4.74578 4.90203 13.8121 -7.54942 28.6811 -7.54942V39.1106C42.8807 39.1106 51.4058 27.244 51.4058 16.4338H4.74578ZM28.6811 -7.54942C43.5313 -7.54942 52.6165 4.88178 52.6165 16.4338H5.95646C5.95646 27.2635 14.4995 39.1106 28.6811 39.1106V-7.54942ZM52.6165 16.4348L52.6161 25.1552L5.95608 25.1531L5.95646 16.4328L52.6165 16.4348ZM52.6161 25.1541V25.2556H5.95608V25.1541H52.6161ZM52.6161 25.2556C52.6161 14.6972 44.2789 3.07655 30.3535 3.07655V49.7365C15.2507 49.7365 5.95608 37.0828 5.95608 25.2556H52.6161ZM30.3535 3.07655C23.8376 3.07655 18.0144 5.89233 14.0267 10.1793L48.1912 41.9589C43.7986 46.6811 37.4402 49.7365 30.3535 49.7365V3.07655ZM14.012 10.1951C10.016 14.4989 8.09051 19.9615 8.09051 25.2551H54.7505C54.7505 31.1664 52.6036 37.2065 48.2059 41.9431L14.012 10.1951ZM8.09051 25.2551V16.4333H54.7505V25.2551H8.09051ZM8.09051 16.4333C8.09051 4.90123 17.1572 -7.54988 32.0259 -7.54988V39.1101C46.2251 39.1101 54.7505 27.2439 54.7505 16.4333H8.09051ZM32.0259 -7.54988C46.8761 -7.54988 55.9612 4.88132 55.9612 16.4333H9.3012C9.3012 27.263 17.8443 39.1101 32.0259 39.1101V-7.54988ZM55.9612 16.436L55.9604 23.0949L9.30044 23.0896L9.3012 16.4307L55.9612 16.436ZM55.9604 23.0923C55.9604 12.5579 47.6448 0.914066 33.6971 0.914066V47.5741C18.5736 47.5741 9.30044 34.8971 9.30044 23.0923H55.9604ZM33.6971 0.914066C27.2141 0.914066 21.3731 3.706 17.3548 8.03389L51.5487 39.7818C47.1286 44.5425 40.7524 47.5741 33.6971 47.5741V0.914066ZM17.3399 8.04997C13.3479 12.3577 11.4337 17.8154 11.4337 23.0923H58.0937C58.0937 28.9859 55.9589 35.0229 51.5636 39.7657L17.3399 8.04997ZM11.4337 23.0916L11.4341 9.59449L58.0941 9.5958L58.0937 23.0929L11.4337 23.0916ZM11.4341 9.59514C11.4341 12.6093 12.4569 15.9544 14.9088 18.8628C17.3981 21.8154 21.8885 24.761 27.8809 24.761V-21.899C48.135 -21.899 58.0941 -3.89991 58.0941 9.59514H11.4341ZM5.32805 -4.54045L5.32808 -4.54059L50.4338 7.40234L50.4337 7.40247L5.32805 -4.54045Z" fill="#4CAF4F" mask="url(#path-1-inside-1_16_1455)"/>
<mask id="path-3-inside-2_16_1455" fill="white">
<path d="M9.91372 34.9306L18.6978 29.2444C19.7568 28.558 21.1195 28.8497 21.7988 29.9086C22.0467 30.2943 22.1733 30.7439 22.193 31.2016C22.5205 31.0171 22.8768 30.9169 23.2395 30.9169C23.4252 30.9169 23.6117 30.9419 23.796 30.9913C24.3861 31.1505 24.8834 31.5484 25.1962 32.1112C25.5093 32.6749 25.6006 33.3354 25.4532 33.9715C25.3171 34.5601 24.9854 35.0555 24.5241 35.3953C24.8467 35.6007 25.1249 35.8809 25.3228 36.2375C25.6359 36.8012 25.7272 37.4614 25.5802 38.0982C25.4327 38.7343 25.0639 39.2709 24.5416 39.6092L24.5386 39.6112C24.8554 39.8162 25.1287 40.0935 25.3243 40.4448C25.6378 41.0085 25.7292 41.669 25.5817 42.3058C25.4339 42.9423 25.0651 43.4789 24.5435 43.8168L13.818 50.76C11.8163 52.0554 9.50216 52.5025 7.30292 52.0178C5.08399 51.5286 3.24631 50.1523 2.12893 48.1423C0.360634 44.9621 0.625641 41.2048 2.81918 38.3371C2.91963 38.2062 3.01856 38.0729 3.1084 37.9346C3.20354 37.7886 3.3146 37.6168 3.3525 37.5579C3.57955 37.1203 7.28443 29.9173 7.28404 29.9182C7.65816 29.1897 8.3594 28.7774 9.08261 28.7778C9.41997 28.7778 9.76224 28.8674 10.078 29.0563C10.4593 29.2862 10.7796 29.6212 11.0037 30.0249C11.4642 30.8532 11.4805 31.8897 11.0469 32.7285L9.91372 34.9306ZM9.96641 30.6964C9.84891 30.4849 9.68743 30.3164 9.48994 30.197C9.08171 29.9532 8.56772 30.1119 8.34297 30.5508C5.69193 35.7045 4.78823 37.4608 4.43948 38.0858L4.44744 38.0879C4.41825 38.1926 4.41825 38.1926 4.0991 38.6846C3.99069 38.8511 3.87281 39.011 3.75265 39.1685C1.86645 41.6345 1.64744 44.7378 3.16626 47.4704C4.10706 49.163 5.66194 50.3234 7.54464 50.7381C9.44782 51.1557 11.4538 50.7671 13.1948 49.6399L23.9212 42.6964C24.1661 42.5381 24.3389 42.2865 24.4079 41.9884C24.4769 41.6906 24.4341 41.381 24.287 41.1167C23.9845 40.5727 23.3276 40.394 22.8235 40.7216L17.532 44.1472C17.2454 44.3329 16.8732 44.2331 16.7015 43.9235C16.5294 43.6143 16.6223 43.213 16.9088 43.0273L22.2007 39.6017L23.9193 38.4892C24.1642 38.3305 24.3374 38.0789 24.4064 37.7816C24.4754 37.4834 24.4326 37.1734 24.2855 36.9095C23.9826 36.3651 23.3257 36.188 22.822 36.5144L15.8115 41.0526C15.5242 41.2387 15.1531 41.138 14.981 40.8288C14.8089 40.5196 14.9021 40.1183 15.1883 39.9326L23.7924 34.363C24.0372 34.2043 24.2101 33.9532 24.2791 33.655C24.348 33.3572 24.3052 33.0476 24.1585 32.7834C24.0118 32.5196 23.7787 32.333 23.5024 32.2586C23.2245 32.1842 22.9387 32.2304 22.6946 32.3883L21.1019 33.4194C21.1015 33.4194 21.1015 33.4198 21.1011 33.4198H21.1007L14.0906 37.958C13.8033 38.1445 13.4318 38.0438 13.2601 37.7342C13.088 37.425 13.1813 37.0237 13.4675 36.838L20.478 32.2999C20.7228 32.1412 20.8961 31.8897 20.965 31.5923C21.0408 31.2659 20.9832 30.9321 20.8036 30.6524C20.492 30.166 19.8256 30.0368 19.3204 30.3644L8.6017 37.3031C8.36706 37.4545 8.06648 37.4177 7.86975 37.2127C7.67265 37.0074 7.6283 36.6847 7.76097 36.4266L9.9898 32.0934C10.2134 31.6602 10.2047 31.1252 9.9663 30.6966L9.96641 30.6964Z"/>
</mask>
<path d="M9.91372 34.9306L18.6978 29.2444C19.7568 28.558 21.1195 28.8497 21.7988 29.9086C22.0467 30.2943 22.1733 30.7439 22.193 31.2016C22.5205 31.0171 22.8768 30.9169 23.2395 30.9169C23.4252 30.9169 23.6117 30.9419 23.796 30.9913C24.3861 31.1505 24.8834 31.5484 25.1962 32.1112C25.5093 32.6749 25.6006 33.3354 25.4532 33.9715C25.3171 34.5601 24.9854 35.0555 24.5241 35.3953C24.8467 35.6007 25.1249 35.8809 25.3228 36.2375C25.6359 36.8012 25.7272 37.4614 25.5802 38.0982C25.4327 38.7343 25.0639 39.2709 24.5416 39.6092L24.5386 39.6112C24.8554 39.8162 25.1287 40.0935 25.3243 40.4448C25.6378 41.0085 25.7292 41.669 25.5817 42.3058C25.4339 42.9423 25.0651 43.4789 24.5435 43.8168L13.818 50.76C11.8163 52.0554 9.50216 52.5025 7.30292 52.0178C5.08399 51.5286 3.24631 50.1523 2.12893 48.1423C0.360634 44.9621 0.625641 41.2048 2.81918 38.3371C2.91963 38.2062 3.01856 38.0729 3.1084 37.9346C3.20354 37.7886 3.3146 37.6168 3.3525 37.5579C3.57955 37.1203 7.28443 29.9173 7.28404 29.9182C7.65816 29.1897 8.3594 28.7774 9.08261 28.7778C9.41997 28.7778 9.76224 28.8674 10.078 29.0563C10.4593 29.2862 10.7796 29.6212 11.0037 30.0249C11.4642 30.8532 11.4805 31.8897 11.0469 32.7285L9.91372 34.9306ZM9.96641 30.6964C9.84891 30.4849 9.68743 30.3164 9.48994 30.197C9.08171 29.9532 8.56772 30.1119 8.34297 30.5508C5.69193 35.7045 4.78823 37.4608 4.43948 38.0858L4.44744 38.0879C4.41825 38.1926 4.41825 38.1926 4.0991 38.6846C3.99069 38.8511 3.87281 39.011 3.75265 39.1685C1.86645 41.6345 1.64744 44.7378 3.16626 47.4704C4.10706 49.163 5.66194 50.3234 7.54464 50.7381C9.44782 51.1557 11.4538 50.7671 13.1948 49.6399L23.9212 42.6964C24.1661 42.5381 24.3389 42.2865 24.4079 41.9884C24.4769 41.6906 24.4341 41.381 24.287 41.1167C23.9845 40.5727 23.3276 40.394 22.8235 40.7216L17.532 44.1472C17.2454 44.3329 16.8732 44.2331 16.7015 43.9235C16.5294 43.6143 16.6223 43.213 16.9088 43.0273L22.2007 39.6017L23.9193 38.4892C24.1642 38.3305 24.3374 38.0789 24.4064 37.7816C24.4754 37.4834 24.4326 37.1734 24.2855 36.9095C23.9826 36.3651 23.3257 36.188 22.822 36.5144L15.8115 41.0526C15.5242 41.2387 15.1531 41.138 14.981 40.8288C14.8089 40.5196 14.9021 40.1183 15.1883 39.9326L23.7924 34.363C24.0372 34.2043 24.2101 33.9532 24.2791 33.655C24.348 33.3572 24.3052 33.0476 24.1585 32.7834C24.0118 32.5196 23.7787 32.333 23.5024 32.2586C23.2245 32.1842 22.9387 32.2304 22.6946 32.3883L21.1019 33.4194C21.1015 33.4194 21.1015 33.4198 21.1011 33.4198H21.1007L14.0906 37.958C13.8033 38.1445 13.4318 38.0438 13.2601 37.7342C13.088 37.425 13.1813 37.0237 13.4675 36.838L20.478 32.2999C20.7228 32.1412 20.8961 31.8897 20.965 31.5923C21.0408 31.2659 20.9832 30.9321 20.8036 30.6524C20.492 30.166 19.8256 30.0368 19.3204 30.3644L8.6017 37.3031C8.36706 37.4545 8.06648 37.4177 7.86975 37.2127C7.67265 37.0074 7.6283 36.6847 7.76097 36.4266L9.9898 32.0934C10.2134 31.6602 10.2047 31.1252 9.9663 30.6966L9.96641 30.6964Z" fill="#4CAF4F"/>
<path d="M9.91372 34.9306L22.5917 54.5153L-50.8716 102.071L-10.831 24.2562L9.91372 34.9306ZM18.6978 29.2444L31.3858 48.8225L31.3757 48.829L18.6978 29.2444ZM21.7988 29.9086L2.17275 42.5225L2.16705 42.5136L2.16137 42.5047L21.7988 29.9086ZM22.193 31.2016L33.6425 51.5288L0.51986 70.1856L-1.11544 32.2052L22.193 31.2016ZM23.796 30.9913L29.849 8.46027L29.8589 8.46292L29.8687 8.46558L23.796 30.9913ZM25.1962 32.1112L45.5889 20.7787L45.5908 20.782L25.1962 32.1112ZM25.4532 33.9715L2.72273 28.7165L2.72583 28.7031L25.4532 33.9715ZM24.5241 35.3953L11.9965 55.0765L-16.7143 36.8011L10.6853 16.613L24.5241 35.3953ZM25.3228 36.2375L4.92822 47.5667L4.92179 47.5551L25.3228 36.2375ZM25.5802 38.0982L48.3118 43.3481L48.3096 43.3575L48.3074 43.367L25.5802 38.0982ZM24.5416 39.6092L11.4967 20.267L11.6764 20.1458L11.8584 20.028L24.5416 39.6092ZM24.5386 39.6112L11.8699 59.2019L-17.7924 40.0203L11.4937 20.269L24.5386 39.6112ZM25.3243 40.4448L45.7084 29.0968L45.7131 29.1052L25.3243 40.4448ZM25.5817 42.3058L48.3104 47.5685L48.3086 47.5763L48.3067 47.5842L25.5817 42.3058ZM24.5435 43.8168L37.2288 63.3967L37.2217 63.4013L24.5435 43.8168ZM13.818 50.76L26.4962 70.3445L26.4928 70.3467L13.818 50.76ZM7.30292 52.0178L2.28159 74.801L2.28012 74.8007L7.30292 52.0178ZM2.12893 48.1423L22.5188 36.8046L22.52 36.8068L2.12893 48.1423ZM2.81918 38.3371L-15.7113 24.1629L-15.6999 24.1479L-15.6885 24.133L2.81918 38.3371ZM3.1084 37.9346L-16.4546 25.2232L-16.4465 25.2108L-16.4384 25.1984L3.1084 37.9346ZM3.3525 37.5579L24.0616 48.3013L23.5604 49.2675L22.9713 50.1829L3.3525 37.5579ZM7.28404 29.9182L28.0371 40.5765L-13.884 20.1098L7.28404 29.9182ZM9.08261 28.7778L9.08261 52.1078L9.0691 52.1078L9.08261 28.7778ZM10.078 29.0563L22.0585 9.03741L22.0906 9.05661L22.1226 9.07591L10.078 29.0563ZM11.0037 30.0249L-9.38635 41.3623L-9.39123 41.3535L-9.39611 41.3447L11.0037 30.0249ZM11.0469 32.7285L-9.69789 22.054L-9.68781 22.0345L-9.6777 22.0149L11.0469 32.7285ZM9.96641 30.6964L30.3596 19.3647L37.4453 32.1164L29.0829 44.0699L9.96641 30.6964ZM9.48994 30.197L21.4511 10.1665L21.5071 10.1999L21.5628 10.2337L9.48994 30.197ZM8.34297 30.5508L29.1086 41.1846L29.0989 41.2036L29.0891 41.2225L8.34297 30.5508ZM4.43948 38.0858L-1.36599 60.6819L-30.6822 53.1499L-15.9335 26.7179L4.43948 38.0858ZM4.44744 38.0879L10.2529 15.4917L33.3137 21.4166L26.9207 44.352L4.44744 38.0879ZM4.0991 38.6846L23.6723 51.3802L23.6607 51.3982L23.649 51.4161L4.0991 38.6846ZM3.75265 39.1685L22.2998 53.3209L22.2917 53.3316L22.2835 53.3423L3.75265 39.1685ZM3.16626 47.4704L-17.2253 58.8051L-17.2256 58.8044L3.16626 47.4704ZM7.54464 50.7381L2.5443 73.5259L2.53487 73.5239L2.52544 73.5218L7.54464 50.7381ZM13.1948 49.6399L0.515271 30.0563L0.517003 30.0552L13.1948 49.6399ZM23.9212 42.6964L11.2434 23.1116L11.2495 23.1077L11.2556 23.1037L23.9212 42.6964ZM24.4079 41.9884L1.67827 36.7298L1.67988 36.7228L24.4079 41.9884ZM24.287 41.1167L3.90207 52.4633L3.89704 52.4542L24.287 41.1167ZM22.8235 40.7216L35.5364 60.2836L35.5192 60.2948L35.5019 60.306L22.8235 40.7216ZM17.532 44.1472L4.84482 24.5685L4.85356 24.5629L17.532 44.1472ZM16.7015 43.9235L37.0873 32.5785L37.0958 32.5938L37.1042 32.609L16.7015 43.9235ZM16.9088 43.0273L4.22169 23.4486L4.23106 23.4425L16.9088 43.0273ZM22.2007 39.6017L34.8788 59.1863L34.8785 59.1865L22.2007 39.6017ZM23.9193 38.4892L36.6079 58.0669L36.5974 58.0738L23.9193 38.4892ZM24.4064 37.7816L47.136 43.0403L47.1329 43.0539L24.4064 37.7816ZM24.2855 36.9095L3.90803 48.2695L3.90299 48.2604L3.89795 48.2514L24.2855 36.9095ZM22.822 36.5144L35.5082 56.0937L35.4998 56.0991L22.822 36.5144ZM15.8115 41.0526L3.12825 21.4713L3.13364 21.4678L15.8115 41.0526ZM14.981 40.8288L35.3668 29.4838L35.3668 29.4839L14.981 40.8288ZM15.1883 39.9326L2.48934 20.3616L2.49995 20.3547L2.51056 20.3479L15.1883 39.9326ZM23.7924 34.363L36.481 53.9408L36.4701 53.9478L23.7924 34.363ZM24.2791 33.655L1.54942 28.3964L1.55103 28.3895L24.2791 33.655ZM24.1585 32.7834L44.5485 21.4459L44.5522 21.4525L44.5558 21.4591L24.1585 32.7834ZM23.5024 32.2586L29.5402 9.72343L29.5556 9.72755L29.5709 9.73169L23.5024 32.2586ZM22.6946 32.3883L10.0159 12.8041L10.0243 12.7987L22.6946 32.3883ZM21.1019 33.4194L33.7806 53.0035L27.9946 56.7494H21.1019V33.4194ZM21.1007 33.4198L8.4224 13.8354L14.2083 10.0898H21.1007V33.4198ZM14.0906 37.958L1.38781 18.3894L1.40004 18.3815L1.41228 18.3736L14.0906 37.958ZM13.2601 37.7342L33.6459 26.3892L33.6544 26.4045L33.6629 26.4198L13.2601 37.7342ZM13.4675 36.838L0.768486 17.267L0.779051 17.2602L0.789623 17.2533L13.4675 36.838ZM20.478 32.2999L33.1666 51.8777L33.1558 51.8846L20.478 32.2999ZM20.965 31.5923L-1.76142 26.32L-1.76007 26.3142L20.965 31.5923ZM20.8036 30.6524L1.17305 43.2592L1.1662 43.2485L1.15936 43.2378L20.8036 30.6524ZM19.3204 30.3644L32.0132 49.9394L32.0058 49.9442L31.9984 49.949L19.3204 30.3644ZM8.6017 37.3031L21.2798 56.8877L21.2635 56.8982L21.2472 56.9088L8.6017 37.3031ZM7.86975 37.2127L-8.96008 53.3696L-8.96071 53.369L7.86975 37.2127ZM7.76097 36.4266L-12.9882 25.7607L-12.9855 25.7554L7.76097 36.4266ZM9.9898 32.0934L-10.7567 21.4222L-10.7485 21.4063L-10.7402 21.3903L9.9898 32.0934ZM9.9663 30.6966L-10.4224 42.0363L-17.5162 29.2817L-9.15015 17.3231L9.9663 30.6966ZM-2.76423 15.346L6.01981 9.65973L31.3757 48.829L22.5917 54.5153L-2.76423 15.346ZM6.00977 9.66623C17.8522 1.99154 33.7353 5.30687 41.4361 17.3125L2.16137 42.5047C8.50371 52.3925 21.6615 55.1245 31.3858 48.8225L6.00977 9.66623ZM41.4248 17.2948C44.1884 21.5947 45.3278 26.1663 45.5014 30.198L-1.11544 32.2052C-0.981262 35.3214 -0.0950492 38.994 2.17275 42.5225L41.4248 17.2948ZM10.7434 10.8744C14.2424 8.90352 18.51 7.58691 23.2395 7.58691V54.2469C27.2435 54.2469 30.7986 53.1307 33.6425 51.5288L10.7434 10.8744ZM23.2395 7.58691C25.5243 7.58691 27.7447 7.89494 29.849 8.46027L17.7429 53.5224C19.4788 53.9888 21.3262 54.2469 23.2395 54.2469V7.58691ZM29.8687 8.46558C36.9104 10.364 42.3989 15.0383 45.5889 20.7787L4.8035 43.4438C7.368 48.0586 11.8619 51.937 17.7232 53.5171L29.8687 8.46558ZM45.5908 20.782C48.748 26.4656 49.6157 33.0488 48.1805 39.2399L2.72583 28.7031C1.58558 33.622 2.27062 38.8841 4.80162 43.4404L45.5908 20.782ZM48.1836 39.2265C46.7953 45.2315 43.3154 50.5287 38.363 54.1777L10.6853 16.613C6.65548 19.5822 3.83887 23.8886 2.72273 28.7165L48.1836 39.2265ZM37.0518 15.7142C40.3927 17.8408 43.4943 20.9011 45.7238 24.9199L4.92179 47.5551C6.75552 50.8606 9.30068 53.3605 11.9965 55.0765L37.0518 15.7142ZM45.7174 24.9083C48.8757 30.5938 49.7386 37.1703 48.3118 43.3481L2.84851 32.8484C1.71592 37.7525 2.39613 43.0085 4.92823 47.5667L45.7174 24.9083ZM48.3074 43.367C46.8686 49.5737 43.0946 55.3884 37.2248 59.1904L11.8584 20.028C7.03321 23.1533 3.99687 27.8948 2.85288 32.8295L48.3074 43.367ZM37.5864 58.9514L37.5834 58.9534L11.4937 20.269L11.4967 20.267L37.5864 58.9514ZM37.2072 20.0206C40.4814 22.1379 43.5147 25.1564 45.7084 29.0968L4.94023 51.7928C6.74271 55.0306 9.22944 57.4944 11.8699 59.2019L37.2072 20.0206ZM45.7131 29.1052C48.8788 34.7971 49.7425 41.3833 48.3104 47.5685L2.853 37.0432C1.71579 41.9546 2.39684 47.2198 4.93557 51.7845L45.7131 29.1052ZM48.3067 47.5842C46.8683 53.7769 43.1018 59.5917 37.2288 63.3967L11.8582 24.2369C7.0283 27.3661 3.99939 32.1076 2.85664 37.0275L48.3067 47.5842ZM37.2217 63.4013L26.4962 70.3445L1.13986 31.1755L11.8653 24.2323L37.2217 63.4013ZM26.4928 70.3467C19.6022 74.8057 10.9603 76.7138 2.28159 74.801L12.3242 29.2346C8.04397 28.2912 4.03041 29.305 1.14327 31.1733L26.4928 70.3467ZM2.28012 74.8007C-6.55293 72.8533 -13.9421 67.249 -18.2621 59.4778L22.52 36.8068C20.4347 33.0556 16.7209 30.2039 12.3257 29.2349L2.28012 74.8007ZM-18.2609 59.4799C-24.498 48.263 -23.6018 34.4784 -15.7113 24.1629L21.3497 52.5114C24.8531 47.9312 25.2193 41.6613 22.5188 36.8046L-18.2609 59.4799ZM-15.6885 24.133C-15.7101 24.1613 -15.8017 24.2808 -15.9259 24.4522C-16.0521 24.6265 -16.2379 24.8897 -16.4546 25.2232L22.6714 50.646C22.0828 51.5518 21.5483 52.2526 21.3268 52.5412L-15.6885 24.133ZM-16.4384 25.1984C-16.4068 25.1499 -16.3681 25.0902 -16.3312 25.0333C-16.3133 25.0057 -16.2975 24.9812 -16.285 24.9618C-16.2713 24.9406 -16.2654 24.9315 -16.2663 24.9329L22.9713 50.1829C22.9098 50.2785 22.7748 50.4874 22.6552 50.6708L-16.4384 25.1984ZM-17.3566 26.8145C-17.3574 26.8161 -17.3424 26.7871 -17.3007 26.7062C-17.2636 26.6342 -17.2141 26.5381 -17.1533 26.4201C-17.032 26.1846 -16.8699 25.8699 -16.6807 25.5023C-16.3025 24.7674 -15.8189 23.8276 -15.3418 22.9003C-14.8648 21.9733 -14.3949 21.0598 -14.0442 20.378C-13.8689 20.0371 -13.7233 19.7542 -13.6216 19.5565C-13.5708 19.4577 -13.5308 19.38 -13.5036 19.327C-13.49 19.3006 -13.4794 19.2801 -13.4722 19.2661C-13.4687 19.2592 -13.4657 19.2534 -13.4635 19.2491C-13.4625 19.2472 -13.4612 19.2446 -13.4599 19.2421C-13.4594 19.2412 -13.4579 19.2383 -13.4561 19.2348C-13.455 19.2325 -13.4516 19.226 -13.4493 19.2215C-13.4423 19.2079 17.5526 8.96953 28.452 39.7266L-13.884 20.1098C-2.98453 50.8668 28.0103 40.6285 28.0173 40.6149C28.0195 40.6106 28.0228 40.6042 28.0239 40.6022C28.0255 40.5991 28.0266 40.5968 28.0266 40.5968C28.027 40.596 28.027 40.5961 28.0263 40.5976C28.0249 40.6002 28.0226 40.6047 28.0191 40.6114C28.0123 40.6247 28.002 40.6446 27.9885 40.671C27.9614 40.7237 27.9216 40.8011 27.8707 40.9C27.769 41.0977 27.6233 41.3808 27.4479 41.722C27.0969 42.4042 26.6265 43.3186 26.1489 44.2469C25.2133 46.0655 24.1992 48.0361 24.0616 48.3013L-17.3566 26.8145ZM-13.469 19.2599C-9.23013 11.0062 -0.665514 5.44212 9.09612 5.44778L9.0691 52.1078C17.3843 52.1126 24.5465 47.3732 28.0371 40.5765L-13.469 19.2599ZM9.08261 5.44777C13.6041 5.44777 18.0919 6.66358 22.0585 9.03741L-1.90248 49.0752C1.43256 51.0711 5.23587 52.1078 9.08261 52.1078V5.44777ZM22.1226 9.07591C26.1255 11.4889 29.2729 14.8655 31.4034 18.705L-9.39611 41.3447C-7.7136 44.3768 -5.20682 47.0835 -1.96657 49.0367L22.1226 9.07591ZM31.3936 18.6875C35.6394 26.3233 35.8059 35.6377 31.7714 43.4421L-9.6777 22.0149C-12.8449 28.1417 -12.711 35.3831 -9.38635 41.3623L31.3936 18.6875ZM31.7916 43.403L30.6585 45.6051L-10.831 24.2562L-9.69789 22.054L31.7916 43.403ZM-10.4267 42.0281C-8.64253 45.2391 -5.98889 48.1005 -2.58296 50.1603L21.5628 10.2337C25.3638 12.5323 28.3403 15.7308 30.3596 19.3647L-10.4267 42.0281ZM-2.47121 50.2274C9.45727 57.3505 23.6004 51.9409 29.1086 41.1846L-12.4226 19.9169C-6.46499 8.28294 8.70614 2.55589 21.4511 10.1665L-2.47121 50.2274ZM29.0891 41.2225C26.6141 46.034 25.4154 48.3732 24.8125 49.4537L-15.9335 26.7179C-15.9759 26.7939 -15.8467 26.5593 -15.193 25.2959C-14.6081 24.1653 -13.7352 22.4685 -12.4032 19.8791L29.0891 41.2225ZM10.245 15.4897L10.2529 15.4917L-1.35803 60.684L-1.36599 60.6819L10.245 15.4897ZM26.9207 44.352C26.9205 44.3528 26.9188 44.359 26.9168 44.366C26.9148 44.3734 26.9115 44.385 26.9076 44.3991C26.9 44.4262 26.8871 44.4718 26.8711 44.5279C26.8396 44.6377 26.7855 44.8242 26.714 45.0538C26.5593 45.5511 26.3422 46.192 26.0448 46.9252C25.4534 48.3832 24.8391 49.4736 24.5306 50.0021C24.2491 50.4843 23.9953 50.8792 23.9336 50.9757C23.8412 51.1201 23.7356 51.2826 23.6723 51.3802L-15.4741 25.989C-15.3778 25.8406 -15.3637 25.8186 -15.3655 25.8213C-15.371 25.8301 -15.41 25.8909 -15.4659 25.9808C-15.5189 26.0659 -15.6292 26.2445 -15.7666 26.4799C-16.0315 26.9337 -16.6205 27.9738 -17.1937 29.387C-17.7573 30.7765 -18.0753 32.0011 -18.0259 31.8237L26.9207 44.352ZM23.649 51.4161C23.0732 52.3003 22.5502 52.9928 22.2998 53.3209L-14.7945 25.016C-14.8046 25.0293 -15.0918 25.4019 -15.4508 25.9531L23.649 51.4161ZM22.2835 53.3423C23.9944 51.1054 25.2206 48.1768 25.4546 44.8629C25.6883 41.5542 24.8869 38.5271 23.5581 36.1364L-17.2256 58.8044C-23.2129 48.0323 -22.3577 34.9042 -14.7782 24.9947L22.2835 53.3423ZM23.5578 36.1357C21.2675 32.0154 17.2415 28.9849 12.5638 27.9544L2.52544 73.5218C-5.91764 71.6618 -13.0534 66.3105 -17.2253 58.8051L23.5578 36.1357ZM12.545 27.9503C7.95748 26.9436 3.64389 28.0306 0.515271 30.0563L25.8743 69.2235C19.2636 73.5037 10.9382 75.3678 2.5443 73.5259L12.545 27.9503ZM0.517003 30.0552L11.2434 23.1116L36.599 62.2811L25.8726 69.2247L0.517003 30.0552ZM11.2556 23.1037C6.13418 26.4145 2.89883 31.4541 1.67828 36.7298L47.1375 47.247C45.779 53.119 42.198 58.6617 36.5868 62.289L11.2556 23.1037ZM1.67988 36.7228C0.461016 41.9839 1.19686 47.6032 3.90207 52.4633L44.6719 29.7702C47.6713 35.1588 48.4928 41.3973 47.1359 47.2539L1.67988 36.7228ZM3.89704 52.4542C9.69818 62.8873 23.9205 67.8326 35.5364 60.2836L10.1105 21.1597C22.7348 12.9554 38.2708 18.2582 44.6769 29.7792L3.89704 52.4542ZM35.5019 60.306L30.2104 63.7316L4.85356 24.5629L10.1451 21.1373L35.5019 60.306ZM30.2191 63.7259C17.9069 71.7043 2.62274 66.6417 -3.70126 55.2379L37.1042 32.609C31.1236 21.8245 16.5839 16.9615 4.84482 24.5685L30.2191 63.7259ZM-3.68431 55.2685C-9.47946 44.8551 -6.95655 30.6922 4.22169 23.4486L29.596 62.606C40.2011 55.7338 42.5383 42.3734 37.0873 32.5785L-3.68431 55.2685ZM4.23106 23.4425L9.52295 20.017L34.8785 59.1865L29.5866 62.6121L4.23106 23.4425ZM9.52265 20.0171L11.2413 18.9046L36.5974 58.0738L34.8788 59.1863L9.52265 20.0171ZM11.2307 18.9114C6.15361 22.202 2.90857 27.2132 1.67995 32.5093L47.1329 43.0539C45.7663 48.9446 42.1748 54.459 36.6079 58.0669L11.2307 18.9114ZM1.6768 32.5229C0.463298 37.768 1.18881 43.3917 3.90803 48.2695L44.6629 25.5496C47.6763 30.955 48.4875 37.1988 47.136 43.0403L1.6768 32.5229ZM3.89795 48.2514C9.72358 58.7232 23.9426 63.5875 35.5081 56.0937L10.1358 16.9351C22.7088 8.78857 38.2417 14.007 44.673 25.5677L3.89795 48.2514ZM35.4998 56.0991L28.4893 60.6373L3.13364 21.4678L10.1441 16.9297L35.4998 56.0991ZM28.4947 60.6338C16.137 68.6382 0.894676 63.4934 -5.40483 52.1738L35.3668 29.4839C29.4115 18.7827 14.9113 13.8391 3.12825 21.4713L28.4947 60.6338ZM-5.40481 52.1738C-11.2096 41.7431 -8.65916 27.5955 2.48934 20.3616L27.8873 59.5037C38.4634 52.6412 40.8274 39.2961 35.3668 29.4838L-5.40481 52.1738ZM2.51056 20.3479L11.1146 14.7782L36.4701 53.9478L27.8661 59.5174L2.51056 20.3479ZM11.1038 14.7853C6.01604 18.0827 2.77394 23.1036 1.54942 28.3964L47.0087 38.9136C45.6462 44.8028 42.0584 50.326 36.481 53.9408L11.1038 14.7853ZM1.55103 28.3895C0.332393 33.6495 1.06922 39.2588 3.76119 44.1076L44.5558 21.4591C47.5412 26.8364 48.3637 33.0649 47.0071 38.9205L1.55103 28.3895ZM3.76854 44.1208C6.49676 49.0274 11.2524 53.1203 17.4338 54.7855L29.5709 9.73169C36.305 11.5458 41.5269 16.0117 44.5485 21.4459L3.76854 44.1208ZM17.4646 54.7938C23.6669 56.4555 30.1646 55.3414 35.365 51.9778L10.0243 12.7987C15.7128 9.11939 22.7822 7.91277 29.5402 9.72343L17.4646 54.7938ZM35.3734 51.9724L33.7806 53.0035L8.4231 13.8353L10.0159 12.8041L35.3734 51.9724ZM21.1019 56.7494C21.6268 56.7494 22.1669 56.7317 22.7205 56.6932C23.2743 56.6547 23.8381 56.5956 24.41 56.5137C24.6957 56.4728 24.9825 56.4263 25.2703 56.374C25.5581 56.3217 25.8461 56.2638 26.1341 56.2002C26.4221 56.1366 26.7094 56.0674 26.9958 55.9926C27.2822 55.9179 27.5668 55.8377 27.8496 55.7523C28.1324 55.6668 28.4125 55.5763 28.6898 55.4809C28.9671 55.3856 29.2408 55.2856 29.5108 55.1813C29.7808 55.0769 30.0463 54.9685 30.3073 54.8565C30.5683 54.7444 30.8241 54.6289 31.0747 54.5104C31.5764 54.2732 32.0535 54.0257 32.5062 53.772C32.9587 53.5184 33.3835 53.2606 33.7809 53.0033C34.5752 52.489 35.2542 51.9808 35.8185 51.522C36.1006 51.2927 36.3557 51.0744 36.5831 50.8726C36.8103 50.6711 37.0127 50.4837 37.1886 50.3162C37.2767 50.2323 37.3589 50.1527 37.4349 50.0782C37.5109 50.0037 37.5812 49.9338 37.6454 49.8692C37.7096 49.8046 37.7684 49.7447 37.8212 49.6904C37.874 49.6362 37.9217 49.5866 37.9635 49.5429C38.0053 49.4993 38.0422 49.4603 38.0732 49.4274C38.1041 49.3946 38.1306 49.3664 38.151 49.3446C38.1712 49.3229 38.1876 49.3053 38.1974 49.2947C38.2025 49.2893 38.2065 49.2849 38.209 49.2822C38.2113 49.2798 38.2132 49.2777 38.2129 49.278C38.2129 49.278 38.2127 49.2782 38.2126 49.2783C38.2125 49.2784 38.2121 49.2788 38.2119 49.2791C38.2113 49.2798 38.2103 49.2809 38.209 49.2822C38.2065 49.2849 38.2025 49.2893 38.1974 49.2947C38.1875 49.3053 38.1712 49.3229 38.1509 49.3446C38.1305 49.3665 38.1041 49.3947 38.0731 49.4275C38.0421 49.4604 38.0052 49.4993 37.9634 49.543C37.9216 49.5867 37.874 49.6363 37.8211 49.6905C37.7683 49.7448 37.7095 49.8047 37.6453 49.8693C37.581 49.9339 37.5107 50.0039 37.4348 50.0783C37.3588 50.1528 37.2766 50.2324 37.1884 50.3164C37.0125 50.4838 36.8101 50.6713 36.5829 50.8728C36.3555 51.0745 36.1004 51.2929 35.8183 51.5222C35.254 51.981 34.575 52.4893 33.7806 53.0035C33.3832 53.2608 32.9584 53.5187 32.5059 53.7723C32.0531 54.026 31.576 54.2735 31.0743 54.5107C30.8237 54.6292 30.5679 54.7447 30.3069 54.8568C30.0459 54.9689 29.7803 55.0773 29.5103 55.1816C29.2403 55.2859 28.9666 55.3859 28.6893 55.4813C28.412 55.5767 28.1319 55.6672 27.8491 55.7526C27.5663 55.8381 27.2816 55.9182 26.9953 55.993C26.7089 56.0678 26.4216 56.137 26.1335 56.2006C25.8455 56.2642 25.5575 56.3221 25.2697 56.3744C24.9819 56.4267 24.6951 56.4732 24.4094 56.5141C23.8374 56.596 23.2737 56.6551 22.7198 56.6936C22.1662 56.7321 21.6261 56.7498 21.1011 56.7498V10.0898C20.5762 10.0898 20.0361 10.1075 19.4825 10.146C18.9287 10.1846 18.3649 10.2436 17.793 10.3256C17.5073 10.3665 17.2205 10.413 16.9327 10.4652C16.6449 10.5175 16.3569 10.5754 16.0689 10.639C15.7809 10.7026 15.4936 10.7718 15.2072 10.8466C14.9208 10.9214 14.6362 11.0015 14.3534 11.087C14.0706 11.1724 13.7905 11.2629 13.5132 11.3583C13.2359 11.4537 12.9622 11.5537 12.6922 11.658C12.4222 11.7623 12.1567 11.8707 11.8957 11.9828C11.6346 12.0949 11.3788 12.2104 11.1283 12.3288C10.6266 12.566 10.1495 12.8136 9.69677 13.0672C9.24427 13.3208 8.81945 13.5787 8.42205 13.836C7.62774 14.3502 6.94875 14.8585 6.38445 15.3172C6.10237 15.5465 5.84727 15.7649 5.61988 15.9666C5.39268 16.1681 5.19031 16.3556 5.01443 16.523C4.92629 16.6069 4.84407 16.6865 4.76809 16.761C4.69213 16.8355 4.62183 16.9055 4.55761 16.97C4.49341 17.0346 4.43461 17.0945 4.38176 17.1488C4.32894 17.2031 4.28126 17.2526 4.23947 17.2963C4.19771 17.34 4.16081 17.3789 4.12979 17.4118C4.09885 17.4446 4.07243 17.4728 4.05201 17.4947C4.03176 17.5164 4.01543 17.5339 4.00556 17.5445C4.00051 17.55 3.99644 17.5544 3.99397 17.557C3.99172 17.5595 3.98979 17.5615 3.99012 17.5612C3.99012 17.5612 3.99024 17.5611 3.99036 17.5609C3.99048 17.5608 3.99084 17.5604 3.99108 17.5601C3.9917 17.5595 3.99272 17.5584 3.99398 17.557C3.99645 17.5544 4.00053 17.55 4.00557 17.5445C4.01545 17.5339 4.03179 17.5163 4.05204 17.4946C4.07247 17.4728 4.0989 17.4446 4.12985 17.4117C4.16087 17.3788 4.19777 17.3399 4.23954 17.2962C4.28134 17.2525 4.32903 17.203 4.38185 17.1487C4.4347 17.0944 4.49351 17.0345 4.55772 16.9699C4.62194 16.9053 4.69225 16.8354 4.76822 16.7609C4.8442 16.6864 4.92643 16.6068 5.01457 16.5229C5.19047 16.3554 5.39285 16.168 5.62007 15.9664C5.84747 15.7647 6.10258 15.5463 6.38467 15.317C6.949 14.8582 7.62802 14.35 8.42236 13.8357C8.81977 13.5784 9.2446 13.3205 9.69712 13.0669C10.1499 12.8133 10.627 12.5657 11.1287 12.3285C11.3792 12.21 11.6351 12.0945 11.8961 11.9824C12.1571 11.8703 12.4226 11.762 12.6926 11.6576C12.9627 11.5533 13.2364 11.4533 13.5137 11.3579C13.791 11.2626 14.0711 11.1721 14.3539 11.0866C14.6367 11.0012 14.9213 10.921 15.2077 10.8462C15.4941 10.7715 15.7814 10.7023 16.0695 10.6386C16.3575 10.575 16.6455 10.5171 16.9333 10.4648C17.2211 10.4126 17.5079 10.3661 17.7936 10.3252C18.3656 10.2432 18.9293 10.1842 19.4832 10.1456C20.0368 10.1071 20.5769 10.0894 21.1019 10.0894V56.7494ZM21.1011 56.7498H21.1007V10.0898H21.1011V56.7498ZM33.7791 53.0042L26.769 57.5424L1.41228 18.3736L8.4224 13.8354L33.7791 53.0042ZM26.7934 57.5265C14.4354 65.5486 -0.842007 60.4102 -7.14262 49.0487L33.6629 26.4198C27.7057 15.6775 13.1712 10.7403 1.38781 18.3894L26.7934 57.5265ZM-7.12567 49.0792C-12.9305 38.6486 -10.3801 24.5009 0.768486 17.267L26.1664 56.4091C36.7426 49.5465 39.1065 36.2014 33.6459 26.3892L-7.12567 49.0792ZM0.789623 17.2533L7.80012 12.7152L33.1558 51.8846L26.1453 56.4228L0.789623 17.2533ZM7.78936 12.7222C2.71225 16.0127 -0.532791 21.024 -1.76142 26.32L43.6915 36.8646C42.3249 42.7554 38.7334 48.2697 33.1666 51.8777L7.78936 12.7222ZM-1.76007 26.3142C-3.10162 32.0903 -2.06864 38.2115 1.17305 43.2592L40.4341 18.0455C44.0351 23.6528 45.1833 30.4415 43.6901 36.8704L-1.76007 26.3142ZM1.15936 43.2378C8.32382 54.4206 22.4572 56.1357 32.0132 49.9394L6.62752 10.7894C17.194 3.93786 32.6602 5.91151 40.4478 18.0669L1.15936 43.2378ZM31.9984 49.949L21.2798 56.8877L-4.07636 17.7185L6.6423 10.7798L31.9984 49.949ZM21.2472 56.9088C11.4224 63.2457 -1.20075 61.4521 -8.96008 53.3696L24.6996 21.0558C17.3337 13.3832 5.31177 11.6632 -4.04378 17.6975L21.2472 56.9088ZM-8.96071 53.369C-16.2631 45.7619 -17.5378 34.6114 -12.9882 25.7607L28.5101 47.0925C32.7944 38.758 31.6084 28.2529 24.7002 21.0565L-8.96071 53.369ZM-12.9855 25.7554L-10.7567 21.4222L30.7363 42.7645L28.5074 47.0977L-12.9855 25.7554ZM-10.7402 21.3903C-14.1198 27.936 -13.9605 35.6748 -10.4224 42.0363L30.355 19.3568C34.3699 26.5756 34.5467 35.3845 30.7198 42.7964L-10.7402 21.3903ZM-9.15015 17.3231L-9.15003 17.3229L29.0829 44.0699L29.0827 44.07L-9.15015 17.3231Z" fill="#4CAF4F" mask="url(#path-3-inside-2_16_1455)"/>
<mask id="path-5-inside-3_16_1455" fill="white">
<path d="M51.8878 48.1418C50.7707 50.1521 48.9335 51.5281 46.7142 52.0173C44.5146 52.5012 42.2012 52.055 40.1991 50.7596L29.4727 43.816C28.9507 43.4782 28.5815 42.9415 28.4337 42.3042C28.287 41.6682 28.3787 41.0076 28.6914 40.4448C28.8866 40.093 29.1603 39.8157 29.4776 39.6108L29.4746 39.6088C28.9526 39.2709 28.5834 38.7343 28.4364 38.0978C28.2885 37.4614 28.3803 36.8003 28.6933 36.2368C28.895 35.8748 29.1713 35.5917 29.4867 35.3909C29.0288 35.051 28.699 34.5573 28.5633 33.9716C28.4155 33.3347 28.5072 32.6741 28.8203 32.1113C29.1331 31.5481 29.6307 31.1501 30.2206 30.991C30.4048 30.9411 30.5917 30.9166 30.7766 30.9166C31.1398 30.917 31.4961 31.0164 31.8236 31.2013C31.8437 30.7436 31.9699 30.294 32.2178 29.9083C32.8974 28.8502 34.2589 28.5573 35.3195 29.244L44.1033 34.9295L42.9711 32.7289C42.5367 31.8888 42.5526 30.8523 43.0132 30.0236C43.2375 29.6203 43.5582 29.2853 43.9414 29.0534C44.2564 28.8652 44.5976 28.7761 44.9341 28.7761C45.657 28.7765 46.359 29.188 46.7327 29.9165C48.0351 32.4488 50.4929 37.2245 50.6657 37.5579C50.7025 37.6156 50.8135 37.7874 50.9087 37.9334C50.9992 38.072 51.097 38.2046 51.1982 38.3363C53.3915 41.2051 53.656 44.962 51.8877 48.1418L51.8878 48.1418ZM50.2644 39.1687C50.1438 39.0112 50.0256 38.8505 49.9179 38.6848C49.5904 38.1833 49.5821 38.1703 49.5575 38.039C49.1746 37.3555 48.2407 35.5411 45.6734 30.5501C45.4482 30.112 44.9365 29.9521 44.529 30.1951C44.3285 30.3161 44.1674 30.4851 44.0499 30.6965C43.8119 31.1248 43.8028 31.6598 44.0275 32.0942L46.2556 36.4262C46.3886 36.6847 46.3443 37.007 46.1476 37.2123C45.9512 37.418 45.651 37.454 45.4153 37.3027L34.6966 30.364C34.1913 30.0372 33.5254 30.1652 33.213 30.6519C33.0333 30.9317 32.9761 31.2655 33.0511 31.5915C33.1201 31.8893 33.2934 32.1404 33.5386 32.2991C33.5394 32.2995 33.5397 32.3003 33.5405 32.3007L40.5488 36.8376C40.8353 37.0233 40.9282 37.4241 40.7561 37.7338C40.584 38.0426 40.2129 38.1436 39.9256 37.9575L31.3216 32.3879C31.0775 32.23 30.7901 32.1834 30.5142 32.2582C30.2375 32.3327 30.0047 32.5192 29.8581 32.7838C29.711 33.0476 29.6685 33.3573 29.7368 33.655C29.8058 33.9528 29.979 34.2043 30.2238 34.363L31.8981 35.4466L38.8275 39.9328C39.114 40.1185 39.2069 40.5193 39.0348 40.8289C38.8627 41.1378 38.4916 41.2384 38.2043 41.0527L31.1946 36.5145C30.6905 36.1873 30.034 36.3648 29.7307 36.9097C29.5836 37.1739 29.5412 37.4835 29.6094 37.7813C29.6784 38.0791 29.8516 38.3302 30.0969 38.4893L31.8155 39.6018L37.1066 43.0274C37.3932 43.2131 37.486 43.614 37.3139 43.9236C37.1418 44.2324 36.7708 44.3339 36.4834 44.1473L31.1923 40.7217C30.9482 40.5639 30.662 40.5172 30.3846 40.5921C30.1086 40.6665 29.8751 40.853 29.7284 41.1169C29.5817 41.3811 29.5389 41.6911 29.6071 41.9885C29.6761 42.2863 29.8494 42.5374 30.0946 42.6965L40.821 49.64C42.5617 50.7669 44.5691 51.1571 46.4712 50.7382C48.3535 50.3235 49.9084 49.1631 50.8492 47.4705C52.3695 44.7374 52.1508 41.6338 50.2651 39.1686L50.2644 39.1687Z"/>
</mask>
<path d="M51.8878 48.1418C50.7707 50.1521 48.9335 51.5281 46.7142 52.0173C44.5146 52.5012 42.2012 52.055 40.1991 50.7596L29.4727 43.816C28.9507 43.4782 28.5815 42.9415 28.4337 42.3042C28.287 41.6682 28.3787 41.0076 28.6914 40.4448C28.8866 40.093 29.1603 39.8157 29.4776 39.6108L29.4746 39.6088C28.9526 39.2709 28.5834 38.7343 28.4364 38.0978C28.2885 37.4614 28.3803 36.8003 28.6933 36.2368C28.895 35.8748 29.1713 35.5917 29.4867 35.3909C29.0288 35.051 28.699 34.5573 28.5633 33.9716C28.4155 33.3347 28.5072 32.6741 28.8203 32.1113C29.1331 31.5481 29.6307 31.1501 30.2206 30.991C30.4048 30.9411 30.5917 30.9166 30.7766 30.9166C31.1398 30.917 31.4961 31.0164 31.8236 31.2013C31.8437 30.7436 31.9699 30.294 32.2178 29.9083C32.8974 28.8502 34.2589 28.5573 35.3195 29.244L44.1033 34.9295L42.9711 32.7289C42.5367 31.8888 42.5526 30.8523 43.0132 30.0236C43.2375 29.6203 43.5582 29.2853 43.9414 29.0534C44.2564 28.8652 44.5976 28.7761 44.9341 28.7761C45.657 28.7765 46.359 29.188 46.7327 29.9165C48.0351 32.4488 50.4929 37.2245 50.6657 37.5579C50.7025 37.6156 50.8135 37.7874 50.9087 37.9334C50.9992 38.072 51.097 38.2046 51.1982 38.3363C53.3915 41.2051 53.656 44.962 51.8877 48.1418L51.8878 48.1418ZM50.2644 39.1687C50.1438 39.0112 50.0256 38.8505 49.9179 38.6848C49.5904 38.1833 49.5821 38.1703 49.5575 38.039C49.1746 37.3555 48.2407 35.5411 45.6734 30.5501C45.4482 30.112 44.9365 29.9521 44.529 30.1951C44.3285 30.3161 44.1674 30.4851 44.0499 30.6965C43.8119 31.1248 43.8028 31.6598 44.0275 32.0942L46.2556 36.4262C46.3886 36.6847 46.3443 37.007 46.1476 37.2123C45.9512 37.418 45.651 37.454 45.4153 37.3027L34.6966 30.364C34.1913 30.0372 33.5254 30.1652 33.213 30.6519C33.0333 30.9317 32.9761 31.2655 33.0511 31.5915C33.1201 31.8893 33.2934 32.1404 33.5386 32.2991C33.5394 32.2995 33.5397 32.3003 33.5405 32.3007L40.5488 36.8376C40.8353 37.0233 40.9282 37.4241 40.7561 37.7338C40.584 38.0426 40.2129 38.1436 39.9256 37.9575L31.3216 32.3879C31.0775 32.23 30.7901 32.1834 30.5142 32.2582C30.2375 32.3327 30.0047 32.5192 29.8581 32.7838C29.711 33.0476 29.6685 33.3573 29.7368 33.655C29.8058 33.9528 29.979 34.2043 30.2238 34.363L31.8981 35.4466L38.8275 39.9328C39.114 40.1185 39.2069 40.5193 39.0348 40.8289C38.8627 41.1378 38.4916 41.2384 38.2043 41.0527L31.1946 36.5145C30.6905 36.1873 30.034 36.3648 29.7307 36.9097C29.5836 37.1739 29.5412 37.4835 29.6094 37.7813C29.6784 38.0791 29.8516 38.3302 30.0969 38.4893L31.8155 39.6018L37.1066 43.0274C37.3932 43.2131 37.486 43.614 37.3139 43.9236C37.1418 44.2324 36.7708 44.3339 36.4834 44.1473L31.1923 40.7217C30.9482 40.5639 30.662 40.5172 30.3846 40.5921C30.1086 40.6665 29.8751 40.853 29.7284 41.1169C29.5817 41.3811 29.5389 41.6911 29.6071 41.9885C29.6761 42.2863 29.8494 42.5374 30.0946 42.6965L40.821 49.64C42.5617 50.7669 44.5691 51.1571 46.4712 50.7382C48.3535 50.3235 49.9084 49.1631 50.8492 47.4705C52.3695 44.7374 52.1508 41.6338 50.2651 39.1686L50.2644 39.1687Z" fill="#4CAF4F"/>
<path d="M51.8878 48.1418L43.8332 26.2463L102.798 4.55526L72.2809 59.4737L51.8878 48.1418ZM46.7142 52.0173L51.7363 74.8004L51.7265 74.8025L46.7142 52.0173ZM40.1991 50.7596L27.5258 70.3472L27.5213 70.3443L40.1991 50.7596ZM29.4727 43.816L42.15 24.231L42.1504 24.2313L29.4727 43.816ZM28.4337 42.3042L5.70705 47.5758L5.70375 47.5615L5.70047 47.5473L28.4337 42.3042ZM28.6914 40.4448L49.0908 51.7653L49.085 51.7758L28.6914 40.4448ZM29.4776 39.6108L42.5224 20.2686L71.8263 40.0318L42.1353 59.2085L29.4776 39.6108ZM29.4746 39.6088L42.1519 20.0237L42.3368 20.1434L42.5194 20.2665L29.4746 39.6088ZM28.4364 38.0978L51.1614 32.8194L51.1645 32.8327L51.1676 32.846L28.4364 38.0978ZM28.6933 36.2368L8.29938 24.9065L8.3059 24.8948L8.31243 24.8831L28.6933 36.2368ZM29.4867 35.3909L43.3923 16.658L70.6106 36.8623L42.018 55.0698L29.4867 35.3909ZM28.5633 33.9716L51.2891 28.6964L51.2914 28.7064L28.5633 33.9716ZM28.8203 32.1113L49.2172 43.4363L49.2126 43.4446L49.208 43.4528L28.8203 32.1113ZM30.2206 30.991L36.3204 53.5095L36.3082 53.5128L36.2959 53.5161L30.2206 30.991ZM30.7766 30.9166V7.58656H30.7898L30.8029 7.58658L30.7766 30.9166ZM31.8236 31.2013L55.1311 32.2243L53.4639 70.2094L20.3541 51.5173L31.8236 31.2013ZM32.2178 29.9083L51.8473 42.5167L51.8443 42.5214L32.2178 29.9083ZM35.3195 29.244L22.6426 48.8293L22.6399 48.8276L35.3195 29.244ZM44.1033 34.9295L64.8485 24.2559L104.878 102.058L31.4264 54.5148L44.1033 34.9295ZM42.9711 32.7289L63.6948 22.0136L63.7055 22.0344L63.7163 22.0553L42.9711 32.7289ZM43.0132 30.0236L22.6208 18.6904L22.6264 18.6804L43.0132 30.0236ZM43.9414 29.0534L31.8624 9.09376L31.9199 9.05899L31.9776 9.02454L43.9414 29.0534ZM44.9341 28.7761L44.9341 5.44608L44.9473 5.44609L44.9341 28.7761ZM46.7327 29.9165L25.9859 40.587L25.9801 40.5757L25.9743 40.5645L46.7327 29.9165ZM50.6657 37.5579L30.9935 50.0996L30.433 49.2204L29.9531 48.2946L50.6657 37.5579ZM50.9087 37.9334L31.3778 50.694L31.3699 50.6819L31.362 50.6698L50.9087 37.9334ZM51.1982 38.3363L69.6976 24.1214L69.7151 24.1441L69.7325 24.1669L51.1982 38.3363ZM51.8877 48.1418L59.9424 70.0373L0.94972 91.7388L31.4982 36.8036L51.8877 48.1418ZM50.2644 39.1687L52.7564 62.3652L39.7127 63.7665L31.7387 53.3493L50.2644 39.1687ZM49.9179 38.6848L69.4513 25.928L69.4656 25.9499L69.48 25.972L49.9179 38.6848ZM49.5575 38.039L69.9118 26.6377L71.7816 29.9758L72.4873 33.7362L49.5575 38.039ZM45.6734 30.5501L24.9271 41.2217L24.9237 41.2149L45.6734 30.5501ZM44.529 30.1951L32.4705 10.2231L32.5257 10.1897L32.5811 10.1567L44.529 30.1951ZM44.0499 30.6965L64.4433 42.0278L64.4414 42.0312L44.0499 30.6965ZM44.0275 32.0942L64.7481 21.3729L64.7612 21.3982L64.7743 21.4236L44.0275 32.0942ZM46.2556 36.4262L25.5118 47.1024L25.5089 47.0968L46.2556 36.4262ZM46.1476 37.2123L29.2701 21.1052L29.286 21.0886L29.3018 21.072L46.1476 37.2123ZM45.4153 37.3027L32.8127 56.936L32.7749 56.9117L32.7372 56.8873L45.4153 37.3027ZM34.6966 30.364L47.3671 10.7745L47.3746 10.7794L34.6966 30.364ZM33.213 30.6519L52.8476 43.2524L52.8435 43.2588L33.213 30.6519ZM33.0511 31.5915L10.3231 36.857L10.3195 36.8412L10.3158 36.8255L33.0511 31.5915ZM33.5386 32.2991L22.4585 52.8301L21.6424 52.3896L20.8638 51.8858L33.5386 32.2991ZM33.5405 32.3007L44.6206 11.7698L45.4385 12.2112L46.2187 12.7162L33.5405 32.3007ZM40.5488 36.8376L53.227 17.2531L53.2359 17.2589L40.5488 36.8376ZM40.7561 37.7338L61.148 49.0678L61.1418 49.079L61.1355 49.0902L40.7561 37.7338ZM39.9256 37.9575L52.6034 18.3727L52.6093 18.3766L39.9256 37.9575ZM31.3216 32.3879L43.9917 12.7982L43.9993 12.8031L31.3216 32.3879ZM30.5142 32.2582L36.6215 54.7746L36.5983 54.7809L36.5751 54.7872L30.5142 32.2582ZM29.8581 32.7838L50.2629 44.0945L50.2493 44.1191L50.2356 44.1436L29.8581 32.7838ZM29.7368 33.655L7.00874 38.9206L7.00237 38.8931L6.99607 38.8656L29.7368 33.655ZM30.2238 34.363L17.5483 53.9492L17.5417 53.945L17.5352 53.9408L30.2238 34.363ZM31.8981 35.4466L44.5737 15.8604L44.5771 15.8626L31.8981 35.4466ZM38.8275 39.9328L51.5065 20.3488L51.5147 20.3541L38.8275 39.9328ZM39.0348 40.8289L59.4267 52.163L59.4205 52.1742L59.4142 52.1854L39.0348 40.8289ZM38.2043 41.0527L25.5402 60.6463L25.5329 60.6415L25.5255 60.6368L38.2043 41.0527ZM31.1946 36.5145L18.5158 56.0986L18.5043 56.0912L18.4928 56.0837L31.1946 36.5145ZM29.7307 36.9097L50.1158 48.2558L50.1157 48.256L29.7307 36.9097ZM29.6094 37.7813L6.88139 43.0468L6.87503 43.0193L6.86873 42.9918L29.6094 37.7813ZM30.0969 38.4893L17.4188 58.0739L17.409 58.0675L17.3991 58.0611L30.0969 38.4893ZM31.8155 39.6018L44.4935 20.0173L44.4946 20.0179L31.8155 39.6018ZM37.1066 43.0274L49.7857 23.4435L49.7938 23.4488L37.1066 43.0274ZM37.3139 43.9236L57.7058 55.2576L57.6996 55.2688L57.6933 55.28L37.3139 43.9236ZM36.4834 44.1473L49.1625 24.5634L49.1746 24.5713L49.1868 24.5791L36.4834 44.1473ZM31.1923 40.7217L43.8625 21.1321L43.8714 21.1378L31.1923 40.7217ZM30.3846 40.5921L24.3082 18.0673L24.3085 18.0672L30.3846 40.5921ZM29.7284 41.1169L9.33102 29.7928L9.33474 29.7861L9.33846 29.7794L29.7284 41.1169ZM29.6071 41.9885L6.87912 47.254L6.87354 47.2299L6.86801 47.2058L29.6071 41.9885ZM30.0946 42.6965L17.4168 62.2813L17.4068 62.2748L17.3968 62.2683L30.0946 42.6965ZM40.821 49.64L53.4988 30.0553L53.4998 30.0559L40.821 49.64ZM46.4712 50.7382L51.4912 73.5217L51.4882 73.5224L46.4712 50.7382ZM50.8492 47.4705L30.4575 36.1361L30.4613 36.1293L50.8492 47.4705ZM50.2651 39.1686L47.773 15.9721L60.8216 14.5703L68.7952 24.9939L50.2651 39.1686ZM72.2809 59.4737C67.9606 67.2485 60.57 72.8532 51.7363 74.8004L41.6921 29.2343C37.297 30.2031 33.5808 33.0557 31.4947 36.8099L72.2809 59.4737ZM51.7265 74.8025C43.0582 76.7094 34.4208 74.8084 27.5258 70.3472L52.8724 31.1719C49.9816 29.3016 45.971 28.293 41.7019 29.2321L51.7265 74.8025ZM27.5213 70.3443L16.7949 63.4008L42.1504 24.2313L52.8769 31.1748L27.5213 70.3443ZM16.7953 63.4011C10.9194 59.5976 7.14612 53.7799 5.70705 47.5758L51.1603 37.0327C50.0169 32.1032 46.982 27.3587 42.15 24.231L16.7953 63.4011ZM5.70047 47.5473C4.27503 41.3668 5.14268 34.7925 8.29789 29.1138L49.085 51.7758C51.6148 47.2227 52.299 41.9696 51.1669 37.0612L5.70047 47.5473ZM8.29205 29.1243C10.4964 25.1521 13.5475 22.1266 16.8199 20.0131L42.1353 59.2085C44.7731 57.5048 47.2769 55.034 49.0908 51.7653L8.29205 29.1243ZM16.4327 58.953L16.4297 58.951L42.5194 20.2665L42.5224 20.2686L16.4327 58.953ZM16.7972 59.1938C10.9255 55.393 7.14302 49.573 5.70516 43.3496L51.1676 32.846C50.0238 27.8955 46.9797 23.1488 42.1519 20.0237L16.7972 59.1938ZM5.71131 43.3761C4.27041 37.1726 5.14436 30.5854 8.29938 24.9065L49.0873 47.567C51.6162 43.0152 52.3067 37.7501 51.1614 32.8194L5.71131 43.3761ZM8.31243 24.8831C10.4371 21.069 13.4398 17.9508 16.9554 15.7121L42.018 55.0698C44.9029 53.2327 47.3529 50.6806 49.0743 47.5905L8.31243 24.8831ZM15.5811 54.1239C10.6768 50.4834 7.2203 45.2157 5.83523 39.2367L51.2914 28.7064C50.1778 23.899 47.3808 19.6187 43.3923 16.658L15.5811 54.1239ZM5.83754 39.2467C4.39883 33.0486 5.2686 26.4575 8.43263 20.7698L49.208 43.4528C51.7459 38.8908 52.4322 33.6209 51.2891 28.6964L5.83754 39.2467ZM8.42343 20.7863C11.616 15.0364 17.1086 10.3638 24.1452 8.46594L36.2959 53.5161C42.1529 51.9364 46.6502 48.0597 49.2172 43.4363L8.42343 20.7863ZM24.1207 8.47256C26.2878 7.88552 28.5257 7.58656 30.7766 7.58656V54.2466C32.6577 54.2466 34.5217 53.9967 36.3204 53.5095L24.1207 8.47256ZM30.8029 7.58658C35.4801 7.59185 39.7482 8.88398 43.293 10.8852L20.3541 51.5173C23.244 53.1487 26.7995 54.2421 30.7504 54.2465L30.8029 7.58658ZM8.51601 30.1782C8.69176 26.174 9.82184 21.6046 12.5913 17.2952L51.8443 42.5214C54.1179 38.9835 54.9956 35.3131 55.1311 32.2243L8.51601 30.1782ZM12.5883 17.2999C20.2821 5.32177 36.1461 1.98603 47.9992 9.6605L22.6399 48.8276C32.3717 55.1286 45.5128 52.3786 51.8473 42.5167L12.5883 17.2999ZM47.9965 9.65873L56.7802 15.3442L31.4264 54.5148L22.6426 48.8293L47.9965 9.65873ZM23.3581 45.6031L22.2259 43.4025L63.7163 22.0553L64.8485 24.2559L23.3581 45.6031ZM22.2474 43.4442C18.2164 35.6481 18.3724 26.3347 22.6208 18.6904L63.4055 41.3568C66.7328 35.3698 66.857 28.1294 63.6948 22.0136L22.2474 43.4442ZM22.6264 18.6804C24.7641 14.8384 27.9045 11.489 31.8624 9.09376L56.0204 49.013C59.2119 47.0816 61.711 44.4022 63.3999 41.3668L22.6264 18.6804ZM31.9776 9.02454C35.9395 6.65799 40.42 5.44608 44.9341 5.44608V52.1061C48.7752 52.1061 52.5734 51.0725 55.9053 49.0823L31.9776 9.02454ZM44.9473 5.44609C54.6593 5.45158 63.2383 10.9778 67.4911 19.2685L25.9743 40.5645C29.4797 47.3982 36.6546 52.1014 44.9209 52.1061L44.9473 5.44609ZM67.4795 19.2459C68.1294 20.5097 69.0685 22.3347 69.8666 23.8855C70.2657 24.661 70.629 25.3667 70.903 25.8988C71.0401 26.165 71.1541 26.3863 71.2387 26.5506C71.2811 26.6328 71.3152 26.699 71.3408 26.7486C71.3695 26.8043 71.3794 26.8233 71.3783 26.8212L29.9531 48.2946C29.7578 47.9178 27.2731 43.0897 25.9859 40.587L67.4795 19.2459ZM70.3378 25.0162C70.3247 24.9955 70.3163 24.9825 70.3158 24.9818C70.3143 24.9793 70.3151 24.9805 70.3186 24.9861C70.3259 24.9973 70.3378 25.0159 70.3538 25.0406C70.3864 25.091 70.4238 25.1486 70.4553 25.1969L31.362 50.6698C31.2577 50.5098 31.095 50.2588 30.9935 50.0996L70.3378 25.0162ZM70.4395 25.1728C70.0647 24.5991 69.7587 24.2009 69.6976 24.1214L32.6989 52.5511C32.4354 52.2082 31.9338 51.545 31.3778 50.694L70.4395 25.1728ZM69.7325 24.1669C77.6182 34.4819 78.5146 48.2635 72.2773 59.4801L31.4982 36.8036C28.7974 41.6605 29.1647 47.9284 32.664 52.5056L69.7325 24.1669ZM43.8331 26.2464L43.8332 26.2463L59.9424 70.0373L59.9424 70.0373L43.8331 26.2464ZM31.7387 53.3493C31.4631 52.9892 30.9352 52.289 30.3559 51.3977L69.48 25.972C69.116 25.4119 68.8246 25.0333 68.79 24.9881L31.7387 53.3493ZM30.3846 51.4417C30.3264 51.3526 30.195 51.1518 30.0756 50.9652C29.9923 50.8351 29.6458 50.2961 29.266 49.6177C28.8294 48.8376 28.1109 47.4602 27.4911 45.6382C26.8946 43.8848 26.6398 42.4062 26.6277 42.3417L72.4873 33.7362C72.486 33.7298 72.4112 33.3208 72.2929 32.8111C72.1571 32.2256 71.958 31.4721 71.6652 30.6113C71.0641 28.8444 70.3727 27.5262 69.9822 26.8284C69.7929 26.4903 69.6357 26.2305 69.5509 26.0924C69.4632 25.9494 69.398 25.8473 69.3782 25.8164C69.3532 25.7774 69.3457 25.7663 69.4513 25.928L30.3846 51.4417ZM29.2031 49.4402C28.5536 48.2808 27.3175 45.8686 24.9271 41.2217L66.4196 19.8785C67.7102 22.3875 68.5675 24.0538 69.1513 25.181C69.7994 26.4324 69.9437 26.6946 69.9118 26.6377L29.2031 49.4402ZM24.9237 41.2149C30.3845 51.8397 44.4616 57.3977 56.477 50.2334L32.5811 10.1567C45.4115 2.50658 60.5119 8.38437 66.4231 19.8853L24.9237 41.2149ZM56.5875 50.1671C60.0082 48.1018 62.6629 45.2322 64.4433 42.0278L23.6565 19.3652C25.672 15.738 28.6488 12.5305 32.4705 10.2231L56.5875 50.1671ZM64.4414 42.0312C67.9779 35.6689 68.1378 27.9239 64.7481 21.3729L23.3069 42.8155C19.4678 35.3957 19.6458 26.5806 23.6584 19.3618L64.4414 42.0312ZM64.7743 21.4236L67.0023 25.7555L25.5089 47.0968L23.2808 42.7649L64.7743 21.4236ZM66.9994 25.7499C71.5537 34.5988 70.2831 45.7442 62.9933 53.3526L29.3018 21.072C22.4055 28.2697 21.2236 38.7706 25.5118 47.1024L66.9994 25.7499ZM63.025 53.3194C55.1913 61.5278 42.5451 63.1832 32.8127 56.936L58.0178 17.6694C48.7569 11.7249 36.7112 13.3082 29.2701 21.1052L63.025 53.3194ZM32.7372 56.8873L22.0185 49.9486L47.3746 10.7794L58.0933 17.7181L32.7372 56.8873ZM22.0261 49.9534C31.5478 56.1122 45.6677 54.4404 52.8476 43.2524L13.5784 18.0515C21.383 5.89004 36.8348 3.96221 47.3671 10.7745L22.0261 49.9534ZM52.8435 43.2588C56.0934 38.1982 57.1064 32.0911 55.7865 26.3575L10.3158 36.8255C8.84579 30.4399 9.97323 23.6652 13.5825 18.0451L52.8435 43.2588ZM55.7792 26.3259C54.5483 21.0132 51.2921 15.9989 46.2134 12.7124L20.8638 51.8858C15.2946 48.2819 11.6919 42.7653 10.3231 36.857L55.7792 26.3259ZM44.6187 11.7681C45.1555 12.0578 45.6558 12.355 46.1202 12.6524C46.5841 12.9495 47.0096 13.2451 47.3968 13.531C47.7837 13.8167 48.1329 14.093 48.444 14.3514C48.5997 14.4807 48.7463 14.6059 48.8837 14.7259C49.0212 14.8459 49.1499 14.9611 49.2698 15.0706C49.3896 15.18 49.5012 15.2841 49.6041 15.3819C49.707 15.4796 49.8021 15.5716 49.8888 15.6568C49.9754 15.742 50.0547 15.8211 50.1258 15.893C50.1968 15.9648 50.2609 16.0305 50.3169 16.0885C50.373 16.1465 50.4224 16.1983 50.4639 16.242C50.5053 16.2857 50.5406 16.3232 50.5679 16.3524C50.5816 16.367 50.5938 16.3801 50.6041 16.3911C50.6144 16.4021 50.6231 16.4116 50.6299 16.4189C50.6367 16.4261 50.6421 16.432 50.6454 16.4355C50.6471 16.4374 50.6485 16.4388 50.6493 16.4397C50.6497 16.4402 50.65 16.4405 50.6503 16.4408C50.6503 16.4408 50.6505 16.441 50.6505 16.441C50.6505 16.4411 50.6506 16.4411 50.6506 16.4411C50.651 16.4416 50.6485 16.4388 50.6455 16.4356C50.6422 16.4321 50.6368 16.4262 50.63 16.419C50.6233 16.4117 50.6145 16.4023 50.6043 16.3913C50.594 16.3803 50.5818 16.3673 50.5681 16.3526C50.5409 16.3235 50.5056 16.286 50.4642 16.2424C50.4227 16.1986 50.3733 16.1469 50.3174 16.089C50.2613 16.031 50.1973 15.9654 50.1263 15.8936C50.0552 15.8217 49.976 15.7426 49.8894 15.6575C49.8028 15.5724 49.7077 15.4803 49.6049 15.3827C49.502 15.285 49.3905 15.1808 49.2707 15.0715C49.1508 14.9621 49.0221 14.8468 48.8847 14.7269C48.7473 14.6069 48.6007 14.4817 48.4451 14.3525C48.1341 14.0942 47.785 13.8179 47.3982 13.5323C47.011 13.2465 46.5857 12.9509 46.1218 12.6539C45.6575 12.3566 45.1573 12.0594 44.6206 11.7698L22.4604 52.8317C21.9236 52.542 21.4233 52.2448 20.9589 51.9474C20.4949 51.6503 20.0695 51.3547 19.6823 51.0688C19.2954 50.7831 18.9462 50.5068 18.6351 50.2484C18.4794 50.1191 18.3328 49.994 18.1953 49.8739C18.0579 49.7539 17.9292 49.6387 17.8093 49.5292C17.6895 49.4198 17.5779 49.3157 17.475 49.2179C17.3721 49.1202 17.277 49.0282 17.1903 48.943C17.1037 48.8579 17.0244 48.7787 16.9533 48.7068C16.8823 48.635 16.8182 48.5693 16.7622 48.5113C16.7061 48.4533 16.6567 48.4015 16.6152 48.3578C16.5738 48.3141 16.5385 48.2766 16.5112 48.2475C16.4974 48.2328 16.4852 48.2197 16.475 48.2087C16.4647 48.1977 16.4559 48.1883 16.4492 48.1809C16.4424 48.1737 16.437 48.1678 16.4337 48.1643C16.432 48.1625 16.4306 48.161 16.4298 48.1601C16.4294 48.1596 16.429 48.1593 16.4288 48.159C16.4288 48.159 16.4286 48.1588 16.4286 48.1588C16.4285 48.1587 16.4285 48.1587 16.4285 48.1587C16.4281 48.1582 16.4306 48.161 16.4336 48.1642C16.4369 48.1678 16.4423 48.1736 16.449 48.1808C16.4558 48.1881 16.4646 48.1975 16.4748 48.2085C16.4851 48.2195 16.4972 48.2326 16.511 48.2472C16.5382 48.2763 16.5735 48.3138 16.6149 48.3575C16.6564 48.4012 16.7057 48.4529 16.7617 48.5108C16.8178 48.5688 16.8818 48.6344 16.9528 48.7062C17.0238 48.7781 17.103 48.8572 17.1897 48.9423C17.2763 49.0274 17.3713 49.1195 17.4742 49.2171C17.5771 49.3149 17.6886 49.419 17.8084 49.5283C17.9282 49.6377 18.057 49.753 18.1943 49.8729C18.3318 49.9929 18.4783 50.1181 18.634 50.2473C18.945 50.5056 19.2941 50.7819 19.6809 51.0675C20.0681 51.3533 20.4934 51.6489 20.9573 51.946C21.4215 52.2433 21.9218 52.5404 22.4585 52.8301L44.6187 11.7681ZM46.2187 12.7162L53.227 17.2531L27.8706 56.4221L20.8623 51.8852L46.2187 12.7162ZM53.2359 17.2589C64.4165 24.5041 66.9315 38.6623 61.148 49.0678L20.3642 26.3997C14.9249 36.186 17.2541 49.5425 27.8616 56.4163L53.2359 17.2589ZM61.1355 49.0902C54.8461 60.3767 39.6182 65.5553 27.2419 57.5384L52.6093 18.3766C40.8076 10.7319 26.3219 15.7084 20.3767 26.3773L61.1355 49.0902ZM27.2478 57.5423L18.6438 51.9726L43.9993 12.8031L52.6034 18.3727L27.2478 57.5423ZM18.6514 51.9776C23.8223 55.322 30.3416 56.478 36.6215 54.7746L24.4068 9.74179C31.2387 7.88872 38.3327 9.13802 43.9917 12.7982L18.6514 51.9776ZM36.5751 54.7872C42.7787 53.1182 47.5397 49.0071 50.2629 44.0945L9.45323 21.4731C12.4698 16.0312 17.6963 11.5471 24.4533 9.72925L36.5751 54.7872ZM50.2356 44.1436C52.9611 39.2544 53.6693 33.6461 52.4775 28.4445L6.99607 38.8656C5.66778 33.0684 6.46083 26.8408 9.48051 21.424L50.2356 44.1436ZM52.4648 28.3895C51.2377 23.0928 47.9929 18.078 42.9124 14.7853L17.5352 53.9408C11.965 50.3307 8.37384 44.8128 7.00874 38.9206L52.4648 28.3895ZM42.8994 14.7769L44.5737 15.8604L19.2225 55.0328L17.5483 53.9492L42.8994 14.7769ZM44.5771 15.8626L51.5065 20.3488L26.1485 59.5167L19.2191 55.0306L44.5771 15.8626ZM51.5147 20.3541C62.6953 27.5992 65.2102 41.7575 59.4267 52.163L18.643 29.4949C13.2036 39.2812 15.5328 52.6377 26.1403 59.5114L51.5147 20.3541ZM59.4142 52.1854C53.1107 63.4973 37.8856 68.6256 25.5402 60.6463L50.8684 21.4591C39.0977 13.8512 24.6148 18.7782 18.6554 29.4725L59.4142 52.1854ZM25.5255 60.6368L18.5158 56.0986L43.8734 16.9305L50.8832 21.4686L25.5255 60.6368ZM18.4928 56.0837C30.0821 63.606 44.3012 58.7028 50.1158 48.2558L9.34558 25.5635C15.7667 14.0269 31.2988 8.76864 43.8964 16.9454L18.4928 56.0837ZM50.1157 48.256C52.8308 43.3781 53.5429 37.7764 52.3501 32.5707L6.86873 42.9918C5.53949 37.1906 6.33651 30.9696 9.3457 25.5633L50.1157 48.256ZM52.3374 32.5157C51.1057 27.1993 47.8506 22.1977 42.7946 18.9175L17.3991 58.0611C11.8527 54.4627 8.25107 48.9589 6.88139 43.0468L52.3374 32.5157ZM42.7749 18.9047L44.4935 20.0173L19.1374 59.1864L17.4188 58.0739L42.7749 18.9047ZM44.4946 20.0179L49.7857 23.4435L24.4275 62.6114L19.1364 59.1858L44.4946 20.0179ZM49.7938 23.4488C60.9744 30.6939 63.4893 44.8521 57.7058 55.2576L16.9221 32.5896C11.4827 42.3758 13.8119 55.7323 24.4194 62.6061L49.7938 23.4488ZM57.6933 55.28C51.4181 66.5411 36.1875 71.7702 23.7801 63.7155L49.1868 24.5791C37.354 16.8976 22.8656 21.9238 16.9345 32.5672L57.6933 55.28ZM23.8044 63.7313L18.5133 60.3057L43.8714 21.1378L49.1625 24.5634L23.8044 63.7313ZM18.5222 60.3114C23.7004 63.6606 30.2096 64.8032 36.4607 63.117L24.3085 18.0672C31.1144 16.2313 38.196 17.4671 43.8625 21.1321L18.5222 60.3114ZM36.461 63.1169C42.6274 61.4534 47.3852 57.37 50.1184 52.4543L9.33846 29.7794C12.3651 24.3361 17.5899 19.8797 24.3082 18.0673L36.461 63.1169ZM50.1259 52.4409C52.8171 47.5934 53.5465 42.0022 52.3463 36.7711L6.86801 47.2058C5.53132 41.3801 6.34641 35.1688 9.33102 29.7928L50.1259 52.4409ZM52.3352 36.7229C51.1035 31.4065 47.8483 26.4049 42.7924 23.1247L17.3968 62.2683C11.8504 58.6699 8.2488 53.1661 6.87912 47.254L52.3352 36.7229ZM42.7724 23.1118L53.4988 30.0553L28.1432 69.2248L17.4168 62.2813L42.7724 23.1118ZM53.4998 30.0559C50.382 28.0374 46.0647 26.9388 41.4541 27.9541L51.4882 73.5224C43.0734 75.3753 34.7413 73.4964 28.1423 69.2242L53.4998 30.0559ZM41.4511 27.9547C36.7731 28.9855 32.7476 32.0161 30.4575 36.1361L71.2408 58.805C67.0692 66.3101 59.9338 71.6615 51.4912 73.5217L41.4511 27.9547ZM30.4613 36.1293C29.1318 38.5194 28.329 41.5469 28.562 44.8572C28.7954 48.1728 30.0219 51.104 31.7349 53.3434L68.7952 24.9939C76.3785 34.9072 77.229 48.0402 71.237 58.8118L30.4613 36.1293ZM52.7571 62.3651L52.7564 62.3652L47.7724 15.9722L47.773 15.9721L52.7571 62.3651Z" fill="#4CAF4F" mask="url(#path-5-inside-3_16_1455)"/>
</svg>
